<svg xmlns="http://www.w3.org/2000/svg" viewBox="0 0 1923 1099.25"><defs><style>.cls-1{fill:#36bbca;}.cls-2{fill:#f8d90f;}.cls-3,.cls-5{opacity:0.1;}.cls-4,.cls-5{fill:none;stroke:#231f20;stroke-miterlimit:10;stroke-width:3px;}</style></defs><g id="Layer_2" data-name="Layer 2"><g id="Background"><rect class="cls-1" x="1.5" y="1.5" width="966.39" height="1080"/><rect class="cls-2" x="961.5" y="1.5" width="960.39" height="1080"/><g class="cls-3"><path class="cls-4" d="M815.82,531.61a40.58,40.58,0,0,1-3.46,9.48h50.39a40.14,40.14,0,0,1-3.46-9.48C874,527.54,884,519.46,884,510.16c0-13.4-20.79-24.27-46.42-24.27s-46.43,10.87-46.43,24.27C791.13,519.46,801.14,527.54,815.82,531.61Z"/><path class="cls-4" d="M992.43,657.54c-9.3,0-17.37,10-21.45,24.68a39.86,39.86,0,0,1-9.48-3.46V541.1h-240v32.51a39.17,39.17,0,0,1-10.56,4.11c-4.07-14.9-12.14-25.06-21.43-25.06-13.4,0-24.25,21.1-24.25,47.13s10.85,47.12,24.25,47.12c9.29,0,17.36-10.15,21.43-25.06A39.49,39.49,0,0,1,721.5,626V810.56h63.65c.23-.78.46-1.61.66-2.45-14.95-4.07-25.14-12.1-25.14-21.37,0-13.35,21.17-24.18,47.27-24.17s47.29,10.82,47.29,24.17c0,9.27-10.2,17.3-25.15,21.37.2.84.43,1.67.66,2.45H961.5v-81.4A39.86,39.86,0,0,1,971,725.7c4.08,14.68,12.15,24.68,21.45,24.68,13.41,0,24.27-20.78,24.27-46.42S1005.84,657.54,992.43,657.54Z"/></g><path class="cls-5" d="M1227.72,411.56c-9.28,0-17.36,10.15-21.42,25.06a41.23,41.23,0,0,1-4.8-1.44v-59.9a39,39,0,0,0-9.12-3.33,1,1,0,0,1,0,.14c-2.5,9.11-6.5,16.42-11.36,20.7a3.8,3.8,0,0,1-.37.33c-.33.28-.67.55-1,.8A14.48,14.48,0,0,1,1171,397c-13.4,0-24.26-21.1-24.26-47.13,0-19.5,6.1-36.23,14.78-43.4l.44-.35a14.63,14.63,0,0,1,9-3.38c9.28,0,17.36,10.16,21.42,25.06a39.74,39.74,0,0,0,9-3.25l.14-.07V271.3h-63.65c-.24-.79-.46-1.61-.67-2.46,15-4.06,25.15-12.1,25.15-21.37,0-13.35-21.17-24.17-47.28-24.17s-47.28,10.82-47.28,24.17c0,9.27,10.19,17.31,25.15,21.37-.21.85-.43,1.67-.67,2.46H961.5V389.84A40.39,40.39,0,0,1,952,393.3c-4.07-14.68-12.15-24.68-21.45-24.68-13.4,0-24.27,20.78-24.27,46.42s10.87,46.42,24.27,46.42c9.3,0,17.38-10,21.45-24.68a40,40,0,0,1,9.49,3.46V541.09h100.61a40.24,40.24,0,0,1,3.3,9.15c-14.68,4.08-24.68,12.15-24.68,21.45,0,13.4,20.78,24.27,46.42,24.27s46.42-10.87,46.42-24.27c0-9.3-10-17.37-24.68-21.45a40.24,40.24,0,0,1,3.3-9.15h89.31V482.2a41.23,41.23,0,0,1,4.8-1.44c4.06,14.91,12.14,25.06,21.42,25.06,13.4,0,24.26-21.1,24.26-47.13S1241.12,411.56,1227.72,411.56Z"/><path class="cls-5" d="M481.5,271.3V482.8A37.67,37.67,0,0,1,467.79,489c-4.07-14.91-12.14-25.06-21.43-25.06C433,463.89,422.1,485,422.1,511c0,11.28,2,21.63,5.45,29.75h-186V473.51a40.89,40.89,0,0,1,5.4-1.66c4.07,14.9,12.14,25.06,21.43,25.06,13.4,0,24.25-21.1,24.25-47.13s-10.85-47.13-24.25-47.13c-9.29,0-17.36,10.15-21.43,25.06a42.45,42.45,0,0,1-5.4-1.66V271.3H376.2a39.9,39.9,0,0,1,3.53,9.44c-15,4.06-25.15,12.11-25.15,21.37,0,13.35,21.17,24.18,47.28,24.18s47.28-10.83,47.28-24.18c0-9.26-10.19-17.31-25.14-21.37a39.47,39.47,0,0,1,3.52-9.44Z"/><path class="cls-5" d="M665.26,60.52c0,26,10.85,47.13,24.25,47.13,9.29,0,17.36-10.16,21.44-25.06A39.22,39.22,0,0,1,721.5,86.7V271.3h-87a40.62,40.62,0,0,1-2.89-8.2c15-4.06,25.14-12.1,25.14-21.36,0-13.36-21.17-24.18-47.27-24.18s-47.28,10.82-47.28,24.18c0,9.26,10.19,17.3,25.13,21.36a40.63,40.63,0,0,1-2.88,8.2h-103V166.08a40.35,40.35,0,0,1,8.36-3c4.08,14.9,12.15,25.06,21.43,25.06,13.4,0,24.26-21.1,24.26-47.13s-10.86-47.13-24.26-47.13c-9.28,0-17.35,10.16-21.43,25.06A40.35,40.35,0,0,1,481.5,116V1.83h240V34.34A38.9,38.9,0,0,1,711,38.45c-4.08-14.9-12.15-25.06-21.44-25.06C676.11,13.39,665.26,34.49,665.26,60.52Z"/><path class="cls-5" d="M292.58,449.78c0,26-10.85,47.13-24.25,47.13-9.29,0-17.36-10.16-21.43-25.06a40.89,40.89,0,0,0-5.4,1.66v66.93H1.5V271.3h240V426.05a42.45,42.45,0,0,0,5.4,1.66C251,412.8,259,402.65,268.33,402.65,281.73,402.65,292.58,423.75,292.58,449.78Z"/><path class="cls-5" d="M297,193c0,26-10.86,47.13-24.25,47.13-9.16,0-17.12-9.84-21.25-24.37a23.29,23.29,0,0,0-10,4.6v51H83.92a24.7,24.7,0,0,0-2.57,6.9c14.58,4.11,24.45,12.05,24.45,21.17,0,13.36-21.16,24.18-47.28,24.18s-47.28-10.82-47.28-24.18c0-9.12,9.88-17.06,24.46-21.17a24.36,24.36,0,0,0-2.58-6.9H1.5V1.5h240V51a44.62,44.62,0,0,1-4.29,1.25c-4.07-14.91-12.14-25.07-21.43-25.07-13.39,0-24.26,21.11-24.26,47.13s10.87,47.13,24.26,47.13c9.29,0,17.36-10.15,21.43-25.06a44.62,44.62,0,0,1,4.29,1.25v68a23.17,23.17,0,0,0,10,4.61c4.13-14.53,12.09-24.37,21.25-24.37C286.11,145.85,297,166.94,297,193Z"/><path class="cls-5" d="M535.55,140.73c0,26-10.86,47.13-24.26,47.13-9.28,0-17.35-10.15-21.43-25.06a40.35,40.35,0,0,0-8.36,2.95V271.3h-54a39.47,39.47,0,0,0-3.52,9.44c14.95,4.06,25.14,12.11,25.14,21.37,0,13.35-21.16,24.18-47.28,24.18s-47.28-10.83-47.28-24.18c0-9.26,10.19-17.31,25.15-21.37a39.9,39.9,0,0,0-3.53-9.44H241.5v-51a23.29,23.29,0,0,1,10-4.6c4.13,14.53,12.09,24.37,21.25,24.37C286.11,240.1,297,219,297,193s-10.86-47.12-24.25-47.12c-9.16,0-17.12,9.84-21.25,24.37a23.17,23.17,0,0,1-10-4.61v-68a44.62,44.62,0,0,0-4.29-1.25c-4.07,14.91-12.14,25.06-21.43,25.06-13.39,0-24.26-21.1-24.26-47.13s10.87-47.13,24.26-47.13c9.29,0,17.36,10.16,21.43,25.07A44.62,44.62,0,0,0,241.5,51V1.5h240V115.71a39.78,39.78,0,0,0,8.36,3c4.08-14.9,12.15-25.06,21.43-25.06C524.69,93.6,535.55,114.71,535.55,140.73Z"/><path class="cls-5" d="M961.5,1.83V271.3H830.74c-.23-.79-.46-1.61-.66-2.46,14.95-4.06,25.15-12.1,25.15-21.37,0-13.35-21.18-24.17-47.28-24.17s-47.28,10.82-47.28,24.17c0,9.27,10.18,17.31,25.14,21.37-.21.85-.42,1.67-.66,2.46H721.5V86.7A39.22,39.22,0,0,0,711,82.59c-4.08,14.9-12.15,25.06-21.44,25.06-13.4,0-24.25-21.1-24.25-47.13s10.85-47.13,24.25-47.13c9.29,0,17.36,10.16,21.44,25.06a38.9,38.9,0,0,0,10.55-4.11V1.83Z"/><path class="cls-5" d="M906.29,415c0,25.64,10.87,46.42,24.27,46.42,9.3,0,17.38-10,21.45-24.68a40,40,0,0,1,9.49,3.46V541.09H862.75a40.14,40.14,0,0,1-3.46-9.48C874,527.54,884,519.46,884,510.16c0-13.4-20.79-24.27-46.42-24.27s-46.43,10.87-46.43,24.27c0,9.3,10,17.38,24.69,21.45a40.58,40.58,0,0,1-3.46,9.48H721.5V482.2a41.82,41.82,0,0,0-4.8-1.44c-4.07,14.91-12.14,25.06-21.43,25.06-13.4,0-24.26-21.1-24.26-47.13s10.86-47.13,24.26-47.13c9.29,0,17.36,10.15,21.43,25.06a41.82,41.82,0,0,0,4.8-1.44v-59.9a38.93,38.93,0,0,1,9.11-3.33s0,.09,0,.14c2.5,9.11,6.5,16.42,11.36,20.7l.37.33c.34.28.67.55,1,.8A14.49,14.49,0,0,0,752,397c13.39,0,24.25-21.1,24.25-47.13,0-19.5-6.09-36.23-14.78-43.4l-.44-.35a14.6,14.6,0,0,0-9-3.38c-9.29,0-17.36,10.16-21.43,25.06a39.47,39.47,0,0,1-9-3.25l-.14-.07V271.3h63.64c.24-.79.46-1.61.67-2.46-15-4.06-25.15-12.1-25.15-21.37,0-13.35,21.17-24.17,47.28-24.17s47.28,10.82,47.28,24.17c0,9.27-10.19,17.31-25.14,21.37q.3,1.28.66,2.46H961.5V389.84A40.39,40.39,0,0,1,952,393.3c-4.07-14.68-12.15-24.68-21.45-24.68C917.16,368.62,906.29,389.4,906.29,415Z"/><path class="cls-5" d="M481.5,810.56v211.5a37.67,37.67,0,0,1-13.71,6.16c-4.07-14.91-12.14-25.06-21.43-25.06-13.39,0-24.26,21.1-24.26,47.13,0,11.28,2,21.63,5.45,29.74h-186v-67.25a42.43,42.43,0,0,1,5.4-1.67c4.07,14.9,12.14,25.06,21.43,25.06,13.4,0,24.25-21.1,24.25-47.13s-10.85-47.12-24.25-47.12C259,941.92,251,952.07,246.9,967a42.43,42.43,0,0,1-5.4-1.67V810.56H376.2a40.15,40.15,0,0,1,3.53,9.45c-15,4.06-25.15,12.11-25.15,21.37,0,13.35,21.17,24.17,47.28,24.17s47.28-10.82,47.28-24.17c0-9.26-10.19-17.31-25.14-21.37a39.72,39.72,0,0,1,3.52-9.45Z"/><path class="cls-5" d="M292.58,989c0,26-10.85,47.13-24.25,47.13-9.29,0-17.36-10.16-21.43-25.06a42.43,42.43,0,0,0-5.4,1.67v66.93H1.5V810.56h240V965.31a42.43,42.43,0,0,0,5.4,1.67c4.07-14.91,12.14-25.06,21.43-25.06C281.73,941.92,292.58,963,292.58,989Z"/><path class="cls-5" d="M297,732.24c0,26-10.86,47.13-24.25,47.13-9.16,0-17.12-9.85-21.25-24.37a23.17,23.17,0,0,0-10,4.6v51H83.92a25,25,0,0,0-2.57,6.9c14.58,4.12,24.45,12.06,24.45,21.18,0,13.35-21.16,24.18-47.28,24.18S11.24,852,11.24,838.64c0-9.12,9.88-17.06,24.46-21.18a24.6,24.6,0,0,0-2.58-6.9H1.5V540.77h240v49.48a44.58,44.58,0,0,1-4.29,1.26c-4.07-14.91-12.14-25.07-21.43-25.07-13.39,0-24.26,21.1-24.26,47.13s10.87,47.13,24.26,47.13c9.29,0,17.36-10.16,21.43-25.06a41.92,41.92,0,0,1,4.29,1.25v68a23.4,23.4,0,0,0,10,4.61c4.13-14.54,12.09-24.38,21.25-24.38C286.11,685.11,297,706.21,297,732.24Z"/><path class="cls-5" d="M721.36,1080.37H481.5v-1.53a37.67,37.67,0,0,0-13.71-6.16,60.77,60.77,0,0,1-2.62,7.69c-4.44,10.6-11.22,17.38-18.81,17.38S432,1091,427.55,1080.37c-3.4-8.12-5.44-18.47-5.44-29.75,0-26,10.86-47.13,24.25-47.13,9.29,0,17.36,10.15,21.43,25.06a37.67,37.67,0,0,0,13.71-6.16V810.56h103a40.29,40.29,0,0,0,2.9-8.19c-15-4.06-25.14-12.1-25.14-21.37,0-13.35,21.16-24.17,47.28-24.17s47.27,10.82,47.27,24.17c0,9.27-10.19,17.31-25.14,21.37a40.3,40.3,0,0,0,2.89,8.19h86.83v53.09l.14.07v0a39.39,39.39,0,0,0,9.11,3.32C734.68,852.17,742.75,842,752,842a14.53,14.53,0,0,1,8.89,3.27l.44.35c8.69,7.17,14.78,23.9,14.78,43.4,0,26-10.86,47.13-24.25,47.13a14.44,14.44,0,0,1-8.65-3.09c-.34-.25-.67-.52-1-.8l-.38-.33c-4.82-4.33-8.78-11.65-11.26-20.73l-.1,0,0-.14a39.85,39.85,0,0,0-9.11,3.33v59.91a41.82,41.82,0,0,1-4.8,1.44c-4.07-14.91-12.14-25.06-21.43-25.06-13.4,0-24.26,21.1-24.26,47.13S681.73,1045,695.13,1045c9.29,0,17.36-10.15,21.43-25.06a41.85,41.85,0,0,1,4.8,1.43Z"/><path class="cls-5" d="M961.5,810.56v269.8h-240v-58.9a41.85,41.85,0,0,0-4.8-1.43c-4.07,14.9-12.14,25.06-21.43,25.06-13.4,0-24.26-21.1-24.26-47.13s10.86-47.13,24.26-47.13c9.29,0,17.36,10.15,21.43,25.06a41.82,41.82,0,0,0,4.8-1.44V914.54a39.85,39.85,0,0,1,9.11-3.33l0,.14c2.5,9.11,6.5,16.42,11.36,20.71.13.12.25.22.38.32a12.08,12.08,0,0,0,1,.8,14.44,14.44,0,0,0,8.65,3.09c13.39,0,24.25-21.09,24.25-47.12,0-19.5-6.09-36.23-14.78-43.4l-.44-.35a14.54,14.54,0,0,0-9-3.38c-9.29,0-17.36,10.15-21.43,25.06a39.64,39.64,0,0,1-9-3.26l-.14-.06v-53.2h63.65c.24-.79.46-1.6.66-2.45-15-4.07-25.14-12.11-25.14-21.37,0-13.35,21.16-24.18,47.28-24.18s47.28,10.83,47.28,24.18c0,9.26-10.2,17.3-25.15,21.37.21.85.43,1.66.67,2.45Z"/><path class="cls-5" d="M665.26,599.79c0,26,10.85,47.12,24.25,47.12,9.29,0,17.36-10.15,21.44-25.06A39.55,39.55,0,0,1,721.5,626V810.56h-87a40.3,40.3,0,0,1-2.89-8.19c15-4.06,25.14-12.11,25.14-21.37,0-13.35-21.17-24.18-47.27-24.18S562.23,767.65,562.23,781c0,9.26,10.19,17.31,25.13,21.37a40.31,40.31,0,0,1-2.88,8.19h-103V705.35a40.93,40.93,0,0,1,8.36-3c4.08,14.91,12.15,25.06,21.43,25.06,13.4,0,24.26-21.09,24.26-47.12s-10.86-47.13-24.26-47.13c-9.28,0-17.35,10.16-21.43,25.06a40.94,40.94,0,0,1-8.36-3V541.1h240v32.51A39.22,39.22,0,0,1,711,577.72c-4.08-14.9-12.15-25.06-21.44-25.06C676.11,552.66,665.26,573.76,665.26,599.79Z"/><path class="cls-5" d="M535.55,680c0,26-10.86,47.13-24.26,47.13-9.29,0-17.36-10.16-21.43-25.06A40.14,40.14,0,0,0,481.5,705V810.57h-54A39.47,39.47,0,0,0,424,820c14.95,4.06,25.14,12.11,25.14,21.37,0,13.35-21.17,24.18-47.28,24.18s-47.28-10.83-47.28-24.18c0-9.26,10.19-17.31,25.14-21.37a39.47,39.47,0,0,0-3.52-9.44H241.5v-51a23.17,23.17,0,0,1,10-4.6c4.13,14.53,12.09,24.37,21.24,24.37,13.4,0,24.26-21.1,24.26-47.13s-10.86-47.13-24.26-47.13c-9.15,0-17.11,9.84-21.24,24.38a23.29,23.29,0,0,1-10-4.61v-68a42.68,42.68,0,0,0-4.29-1.25c-4.07,14.9-12.14,25.06-21.43,25.06-13.4,0-24.26-21.1-24.26-47.13s10.86-47.13,24.26-47.13c9.29,0,17.36,10.16,21.43,25.07,1.52-.37,2.95-.79,4.29-1.25V540.77H427.41c0,.11.08.22.13.33,4.45,10.61,11.22,17.38,18.82,17.38s14.36-6.77,18.8-17.38c0-.11.09-.22.13-.33H481.5V655a40.14,40.14,0,0,0,8.36,2.95c4.07-14.9,12.14-25.06,21.43-25.06C524.69,632.87,535.55,654,535.55,680Z"/><path class="cls-5" d="M761.37,306.37l-.44-.34a14.53,14.53,0,0,0-8.89-3.27c-9.3,0-17.36,10.15-21.44,25.06a39.93,39.93,0,0,1-9.1-3.33v0a.61.61,0,0,1-.14-.07V271.3H634.53a39,39,0,0,1-2.89-8.2c15-4.06,25.14-12.1,25.14-21.36,0-13.35-21.17-24.18-47.28-24.18s-47.28,10.83-47.28,24.18c0,9.26,10.19,17.3,25.14,21.36a39.6,39.6,0,0,1-2.89,8.2h-103V483.13a37.81,37.81,0,0,1-13.72,6.16c-4.06-14.92-12.14-25.06-21.42-25.06-13.4,0-24.26,21.09-24.26,47.13,0,11.12,2,21.35,5.31,29.41,0,.11.08.22.13.33,4.45,10.61,11.22,17.38,18.82,17.38s14.36-6.77,18.8-17.38c0-.11.09-.22.13-.33a61.47,61.47,0,0,0,2.49-7.35,37.81,37.81,0,0,1,13.72,6.15v1.53H721.35v-59a41.82,41.82,0,0,0-4.8-1.44c-4.07,14.91-12.14,25.06-21.43,25.06-13.4,0-24.26-21.1-24.26-47.13s10.86-47.13,24.26-47.13c9.29,0,17.36,10.16,21.43,25.06a41.85,41.85,0,0,0,4.8-1.43V375.17a39.85,39.85,0,0,1,9.11-3.33c0,.05,0,.09,0,.14l.09,0c2.48,9.09,6.45,16.4,11.27,20.74l.37.32c.34.29.67.55,1,.8a14.49,14.49,0,0,0,8.66,3.09c13.39,0,24.25-21.09,24.25-47.12C776.15,330.28,770.06,313.54,761.37,306.37Z"/><path class="cls-5" d="M1441.5,271.3V482.8a37.67,37.67,0,0,0,13.71,6.15c4.07-14.91,12.14-25.06,21.43-25.06,13.39,0,24.26,21.1,24.26,47.13,0,11.28-2.05,21.63-5.45,29.75h186V473.51a40.89,40.89,0,0,0-5.4-1.66c-4.07,14.9-12.14,25.06-21.43,25.06-13.4,0-24.25-21.1-24.25-47.13s10.85-47.13,24.25-47.13c9.29,0,17.36,10.15,21.43,25.06a42.45,42.45,0,0,0,5.4-1.66V271.3H1546.8a39.9,39.9,0,0,0-3.53,9.44c15,4.06,25.15,12.11,25.15,21.37,0,13.35-21.17,24.18-47.28,24.18s-47.28-10.83-47.28-24.18c0-9.26,10.19-17.31,25.14-21.37a39.47,39.47,0,0,0-3.52-9.44Z"/><path class="cls-5" d="M1257.74,60.52c0,26-10.85,47.13-24.25,47.13-9.29,0-17.36-10.16-21.44-25.06a39.22,39.22,0,0,0-10.55,4.11V271.3h87a40.62,40.62,0,0,0,2.89-8.2c-14.95-4.06-25.14-12.1-25.14-21.36,0-13.36,21.17-24.18,47.27-24.18s47.28,10.82,47.28,24.18c0,9.26-10.19,17.3-25.13,21.36a40.63,40.63,0,0,0,2.88,8.2h103V166.08a40.35,40.35,0,0,0-8.36-3c-4.08,14.9-12.15,25.06-21.43,25.06-13.4,0-24.26-21.1-24.26-47.13s10.86-47.13,24.26-47.13c9.28,0,17.35,10.16,21.43,25.06a40.35,40.35,0,0,0,8.36-2.95V1.83h-240V34.34a38.9,38.9,0,0,0,10.55,4.11c4.08-14.9,12.15-25.06,21.44-25.06C1246.89,13.39,1257.74,34.49,1257.74,60.52Z"/><path class="cls-5" d="M1630.42,449.78c0,26,10.85,47.13,24.25,47.13,9.29,0,17.36-10.16,21.43-25.06a40.89,40.89,0,0,1,5.4,1.66v66.93h240V271.3h-240V426.05a42.45,42.45,0,0,1-5.4,1.66c-4.07-14.91-12.14-25.06-21.43-25.06C1641.27,402.65,1630.42,423.75,1630.42,449.78Z"/><path class="cls-5" d="M1626,193c0,26,10.86,47.13,24.25,47.13,9.16,0,17.12-9.84,21.25-24.37a23.29,23.29,0,0,1,10,4.6v51h157.58a24.7,24.7,0,0,1,2.57,6.9c-14.58,4.11-24.45,12.05-24.45,21.17,0,13.36,21.16,24.18,47.28,24.18s47.28-10.82,47.28-24.18c0-9.12-9.88-17.06-24.46-21.17a24.36,24.36,0,0,1,2.58-6.9h31.62V1.5h-240V51a44.62,44.62,0,0,0,4.29,1.25c4.07-14.91,12.14-25.07,21.43-25.07,13.39,0,24.26,21.11,24.26,47.13s-10.87,47.13-24.26,47.13c-9.29,0-17.36-10.15-21.43-25.06a44.62,44.62,0,0,0-4.29,1.25v68a23.17,23.17,0,0,1-10,4.61c-4.13-14.53-12.09-24.37-21.25-24.37C1636.89,145.85,1626,166.94,1626,193Z"/><path class="cls-5" d="M1387.45,140.73c0,26,10.86,47.13,24.26,47.13,9.28,0,17.35-10.15,21.43-25.06a40.35,40.35,0,0,1,8.36,2.95V271.3h54a39.47,39.47,0,0,1,3.52,9.44c-15,4.06-25.14,12.11-25.14,21.37,0,13.35,21.16,24.18,47.28,24.18s47.28-10.83,47.28-24.18c0-9.26-10.19-17.31-25.15-21.37a39.9,39.9,0,0,1,3.53-9.44h134.7v-51a23.29,23.29,0,0,0-10-4.6c-4.13,14.53-12.09,24.37-21.25,24.37C1636.89,240.1,1626,219,1626,193s10.86-47.12,24.25-47.12c9.16,0,17.12,9.84,21.25,24.37a23.17,23.17,0,0,0,10-4.61v-68a44.62,44.62,0,0,1,4.29-1.25c4.07,14.91,12.14,25.06,21.43,25.06,13.39,0,24.26-21.1,24.26-47.13s-10.87-47.13-24.26-47.13c-9.29,0-17.36,10.16-21.43,25.07A44.62,44.62,0,0,1,1681.5,51V1.5h-240V115.71a39.78,39.78,0,0,1-8.36,3c-4.08-14.9-12.15-25.06-21.43-25.06C1398.31,93.6,1387.45,114.71,1387.45,140.73Z"/><path class="cls-5" d="M961.5,1.83V271.3h130.76c.23-.79.46-1.61.66-2.46-15-4.06-25.15-12.1-25.15-21.37,0-13.35,21.18-24.17,47.28-24.17s47.28,10.82,47.28,24.17c0,9.27-10.18,17.31-25.14,21.37.21.85.42,1.67.66,2.46h63.65V86.7a39.22,39.22,0,0,1,10.55-4.11c4.08,14.9,12.15,25.06,21.44,25.06,13.4,0,24.25-21.1,24.25-47.13s-10.85-47.13-24.25-47.13c-9.29,0-17.36,10.16-21.44,25.06a38.9,38.9,0,0,1-10.55-4.11V1.83Z"/><path class="cls-5" d="M1441.5,810.56v211.5a37.67,37.67,0,0,0,13.71,6.16c4.07-14.91,12.14-25.06,21.43-25.06,13.39,0,24.26,21.1,24.26,47.13,0,11.28-2.05,21.63-5.45,29.74h186v-67.25a42.43,42.43,0,0,0-5.4-1.67c-4.07,14.9-12.14,25.06-21.43,25.06-13.4,0-24.25-21.1-24.25-47.13s10.85-47.12,24.25-47.12c9.29,0,17.36,10.15,21.43,25.06a42.43,42.43,0,0,0,5.4-1.67V810.56H1546.8a40.15,40.15,0,0,0-3.53,9.45c15,4.06,25.15,12.11,25.15,21.37,0,13.35-21.17,24.17-47.28,24.17s-47.28-10.82-47.28-24.17c0-9.26,10.19-17.31,25.14-21.37a39.72,39.72,0,0,0-3.52-9.45Z"/><path class="cls-5" d="M1630.42,989c0,26,10.85,47.13,24.25,47.13,9.29,0,17.36-10.16,21.43-25.06a42.43,42.43,0,0,1,5.4,1.67v66.93h240V810.56h-240V965.31a42.43,42.43,0,0,1-5.4,1.67c-4.07-14.91-12.14-25.06-21.43-25.06C1641.27,941.92,1630.42,963,1630.42,989Z"/><path class="cls-5" d="M1626,732.24c0,26,10.86,47.13,24.25,47.13,9.16,0,17.12-9.85,21.25-24.37a23.17,23.17,0,0,1,10,4.6v51h157.58a25,25,0,0,1,2.57,6.9c-14.58,4.12-24.45,12.06-24.45,21.18,0,13.35,21.16,24.18,47.28,24.18s47.28-10.83,47.28-24.18c0-9.12-9.88-17.06-24.46-21.18a24.6,24.6,0,0,1,2.58-6.9h31.62V540.77h-240v49.48a44.58,44.58,0,0,0,4.29,1.26c4.07-14.91,12.14-25.07,21.43-25.07,13.39,0,24.26,21.1,24.26,47.13s-10.87,47.13-24.26,47.13c-9.29,0-17.36-10.16-21.43-25.06a41.92,41.92,0,0,0-4.29,1.25v68a23.4,23.4,0,0,1-10,4.61c-4.13-14.54-12.09-24.38-21.25-24.38C1636.89,685.11,1626,706.21,1626,732.24Z"/><path class="cls-5" d="M1201.64,1080.37H1441.5v-1.53a37.67,37.67,0,0,1,13.71-6.16,60.77,60.77,0,0,0,2.62,7.69c4.44,10.6,11.22,17.38,18.81,17.38s14.37-6.78,18.81-17.38c3.4-8.12,5.44-18.47,5.44-29.75,0-26-10.86-47.13-24.25-47.13-9.29,0-17.36,10.15-21.43,25.06a37.67,37.67,0,0,1-13.71-6.16V810.56h-103a40.29,40.29,0,0,1-2.9-8.19c15-4.06,25.14-12.1,25.14-21.37,0-13.35-21.16-24.17-47.28-24.17s-47.27,10.82-47.27,24.17c0,9.27,10.19,17.31,25.14,21.37a40.3,40.3,0,0,1-2.89,8.19h-86.83v53.09l-.14.07v0a39.39,39.39,0,0,1-9.11,3.32C1188.32,852.17,1180.25,842,1171,842a14.53,14.53,0,0,0-8.89,3.27l-.44.35c-8.69,7.17-14.78,23.9-14.78,43.4,0,26,10.86,47.13,24.25,47.13a14.44,14.44,0,0,0,8.65-3.09c.34-.25.67-.52,1-.8l.38-.33c4.82-4.33,8.78-11.65,11.26-20.73l.1,0,0-.14a39.85,39.85,0,0,1,9.11,3.33v59.91a41.82,41.82,0,0,0,4.8,1.44c4.07-14.91,12.14-25.06,21.43-25.06,13.4,0,24.26,21.1,24.26,47.13s-10.86,47.13-24.26,47.13c-9.29,0-17.36-10.15-21.43-25.06a41.85,41.85,0,0,0-4.8,1.43Z"/><path class="cls-5" d="M961.5,541.1h100.61a40.24,40.24,0,0,1,3.3,9.15c-14.68,4.08-24.68,12.15-24.68,21.45,0,13.4,20.78,24.27,46.42,24.27s46.42-10.87,46.42-24.27c0-9.3-10-17.37-24.68-21.45a40.24,40.24,0,0,1,3.3-9.15h89.31v32.51a39.22,39.22,0,0,0,10.55,4.11c4.08-14.9,12.14-25.06,21.43-25.06,13.4,0,24.26,21.1,24.26,47.13s-10.86,47.13-24.26,47.13c-9.29,0-17.35-10.16-21.43-25.07A39.55,39.55,0,0,0,1201.5,626v184.6h-63.65q-.36-1.19-.66-2.46c15-4.06,25.14-12.1,25.14-21.37,0-13.35-21.17-24.18-47.28-24.17s-47.28,10.82-47.28,24.17c0,9.27,10.19,17.31,25.15,21.37-.21.85-.43,1.67-.67,2.46H961.5"/><path class="cls-5" d="M961.5,810.56v269.8h240v-58.9a41.85,41.85,0,0,1,4.8-1.43c4.07,14.9,12.14,25.06,21.43,25.06,13.4,0,24.26-21.1,24.26-47.13s-10.86-47.13-24.26-47.13c-9.29,0-17.36,10.15-21.43,25.06a41.82,41.82,0,0,1-4.8-1.44V914.54a39.85,39.85,0,0,0-9.11-3.33l0,.14c-2.5,9.11-6.5,16.42-11.36,20.71-.13.12-.25.22-.38.32a12.08,12.08,0,0,1-1,.8,14.44,14.44,0,0,1-8.65,3.09c-13.39,0-24.25-21.09-24.25-47.12,0-19.5,6.09-36.23,14.78-43.4l.44-.35a14.54,14.54,0,0,1,9-3.38c9.29,0,17.36,10.15,21.43,25.06a39.64,39.64,0,0,0,9-3.26l.14-.06v-53.2h-63.65c-.24-.79-.46-1.6-.66-2.45,15-4.07,25.14-12.11,25.14-21.37,0-13.35-21.16-24.18-47.28-24.18s-47.28,10.83-47.28,24.18c0,9.26,10.2,17.3,25.15,21.37-.21.85-.43,1.66-.67,2.45Z"/><path class="cls-5" d="M1257.74,599.79c0,26-10.85,47.12-24.25,47.12-9.29,0-17.36-10.15-21.44-25.06A39.55,39.55,0,0,0,1201.5,626V810.56h87a40.3,40.3,0,0,0,2.89-8.19c-14.95-4.06-25.14-12.11-25.14-21.37,0-13.35,21.17-24.18,47.27-24.18s47.28,10.83,47.28,24.18c0,9.26-10.19,17.31-25.13,21.37a40.31,40.31,0,0,0,2.88,8.19h103V705.35a40.93,40.93,0,0,0-8.36-3c-4.08,14.91-12.15,25.06-21.43,25.06-13.4,0-24.26-21.09-24.26-47.12s10.86-47.13,24.26-47.13c9.28,0,17.35,10.16,21.43,25.06a40.94,40.94,0,0,0,8.36-3V541.1h-240v32.51a39.22,39.22,0,0,0,10.55,4.11c4.08-14.9,12.15-25.06,21.44-25.06C1246.89,552.66,1257.74,573.76,1257.74,599.79Z"/><path class="cls-5" d="M1387.45,680c0,26,10.86,47.13,24.26,47.13,9.29,0,17.36-10.16,21.43-25.06a40.14,40.14,0,0,1,8.36,2.95V810.57h54A39.47,39.47,0,0,1,1499,820c-15,4.06-25.14,12.11-25.14,21.37,0,13.35,21.17,24.18,47.28,24.18s47.28-10.83,47.28-24.18c0-9.26-10.19-17.31-25.14-21.37a39.47,39.47,0,0,1,3.52-9.44h134.7v-51a23.17,23.17,0,0,0-10-4.6c-4.13,14.53-12.09,24.37-21.24,24.37-13.4,0-24.26-21.1-24.26-47.13s10.86-47.13,24.26-47.13c9.15,0,17.11,9.84,21.24,24.38a23.29,23.29,0,0,0,10-4.61v-68a42.68,42.68,0,0,1,4.29-1.25c4.07,14.9,12.14,25.06,21.43,25.06,13.4,0,24.26-21.1,24.26-47.13s-10.86-47.13-24.26-47.13c-9.29,0-17.36,10.16-21.43,25.07-1.52-.37-3-.79-4.29-1.25V540.77H1495.59c0,.11-.08.22-.13.33-4.45,10.61-11.22,17.38-18.82,17.38s-14.36-6.77-18.8-17.38c0-.11-.09-.22-.13-.33H1441.5V655a40.14,40.14,0,0,1-8.36,2.95c-4.07-14.9-12.14-25.06-21.43-25.06C1398.31,632.87,1387.45,654,1387.45,680Z"/><path class="cls-5" d="M1161.63,306.37l.44-.34a14.53,14.53,0,0,1,8.89-3.27c9.3,0,17.36,10.15,21.44,25.06a39.93,39.93,0,0,0,9.1-3.33v0l.14-.07V271.3h86.83a39,39,0,0,0,2.89-8.2c-14.95-4.06-25.14-12.1-25.14-21.36,0-13.35,21.17-24.18,47.28-24.18s47.28,10.83,47.28,24.18c0,9.26-10.19,17.3-25.14,21.36a39.6,39.6,0,0,0,2.89,8.2h103V483.13a37.81,37.81,0,0,0,13.72,6.16c4.06-14.92,12.14-25.06,21.42-25.06,13.4,0,24.26,21.09,24.26,47.13,0,11.12-2,21.35-5.31,29.41,0,.11-.08.22-.13.33-4.45,10.61-11.22,17.38-18.82,17.38s-14.36-6.77-18.8-17.38c0-.11-.09-.22-.13-.33a61.47,61.47,0,0,1-2.49-7.35,37.81,37.81,0,0,0-13.72,6.15v1.53H1201.65v-59a41.82,41.82,0,0,1,4.8-1.44c4.07,14.91,12.14,25.06,21.43,25.06,13.4,0,24.26-21.1,24.26-47.13s-10.86-47.13-24.26-47.13c-9.29,0-17.36,10.16-21.43,25.06a41.85,41.85,0,0,1-4.8-1.43V375.17a39.85,39.85,0,0,0-9.11-3.33c0,.05,0,.09,0,.14l-.09,0c-2.48,9.09-6.45,16.4-11.27,20.74l-.37.32c-.34.29-.67.55-1,.8a14.49,14.49,0,0,1-8.66,3.09c-13.39,0-24.25-21.09-24.25-47.12C1146.85,330.28,1152.94,313.54,1161.63,306.37Z"/></g></g></svg>