<svg xmlns="http://www.w3.org/2000/svg" viewBox="0 0 1923.95 1099.25"><defs><style>.cls-1{fill:#fffced;}.cls-2,.cls-4{opacity:0.1;}.cls-3,.cls-4{fill:none;stroke:#231f20;stroke-miterlimit:10;stroke-width:3px;}</style></defs><g id="Layer_2" data-name="Layer 2"><g id="Background"><rect class="cls-1" y="0.77" width="1920" height="1080"/><g class="cls-2"><path class="cls-3" d="M816.77,531.61a40.58,40.58,0,0,1-3.46,9.48H863.7a40.14,40.14,0,0,1-3.46-9.48c14.69-4.07,24.69-12.15,24.69-21.45,0-13.4-20.79-24.27-46.42-24.27s-46.43,10.87-46.43,24.27C792.08,519.46,802.09,527.54,816.77,531.61Z"/><path class="cls-3" d="M993.38,657.54c-9.3,0-17.37,10-21.45,24.68a39.86,39.86,0,0,1-9.48-3.46V541.1h-240v32.51a39.3,39.3,0,0,1-10.56,4.11c-4.07-14.9-12.14-25.06-21.43-25.06-13.4,0-24.25,21.1-24.25,47.13s10.85,47.12,24.25,47.12c9.29,0,17.36-10.15,21.43-25.06A39.63,39.63,0,0,1,722.45,626V810.56h63.64c.24-.78.46-1.61.67-2.45-15-4.07-25.15-12.1-25.15-21.37,0-13.35,21.17-24.18,47.28-24.17s47.28,10.82,47.28,24.17C856.17,796,846,804,831,808.11c.2.84.42,1.67.66,2.45H962.45v-81.4a39.86,39.86,0,0,1,9.48-3.46c4.08,14.68,12.15,24.68,21.45,24.68,13.4,0,24.27-20.78,24.27-46.42S1006.78,657.54,993.38,657.54Z"/></g><path class="cls-4" d="M1228.67,411.56c-9.28,0-17.36,10.15-21.42,25.06a41.23,41.23,0,0,1-4.8-1.44v-59.9a39,39,0,0,0-9.12-3.33,1,1,0,0,1,0,.14c-2.5,9.11-6.5,16.42-11.36,20.7a3.8,3.8,0,0,1-.37.33c-.33.28-.67.55-1,.8a14.48,14.48,0,0,1-8.65,3.09c-13.4,0-24.26-21.1-24.26-47.13,0-19.5,6.1-36.23,14.78-43.4l.44-.35a14.63,14.63,0,0,1,9-3.38c9.28,0,17.36,10.16,21.42,25.06a39.74,39.74,0,0,0,9-3.25l.14-.07V271.3H1138.8c-.24-.79-.46-1.61-.67-2.46,15-4.06,25.15-12.1,25.15-21.37,0-13.35-21.17-24.17-47.28-24.17s-47.28,10.82-47.28,24.17c0,9.27,10.19,17.31,25.15,21.37-.21.85-.43,1.67-.67,2.46H962.45V389.84A40.39,40.39,0,0,1,953,393.3c-4.07-14.68-12.15-24.68-21.45-24.68-13.4,0-24.27,20.78-24.27,46.42s10.87,46.42,24.27,46.42c9.3,0,17.38-10,21.45-24.68a40,40,0,0,1,9.49,3.46V541.09h100.61a40.24,40.24,0,0,1,3.3,9.15c-14.68,4.08-24.68,12.15-24.68,21.45,0,13.4,20.78,24.27,46.42,24.27s46.42-10.87,46.42-24.27c0-9.3-10-17.37-24.68-21.45a40.24,40.24,0,0,1,3.3-9.15h89.31V482.2a41.23,41.23,0,0,1,4.8-1.44c4.06,14.91,12.14,25.06,21.42,25.06,13.4,0,24.26-21.1,24.26-47.13S1242.07,411.56,1228.67,411.56Z"/><path class="cls-4" d="M482.45,271.3V482.8A37.75,37.75,0,0,1,468.74,489c-4.07-14.91-12.14-25.06-21.43-25.06-13.4,0-24.26,21.1-24.26,47.13,0,11.28,2,21.63,5.45,29.75h-186V473.51a40,40,0,0,1,5.4-1.66c4.07,14.9,12.14,25.06,21.43,25.06,13.39,0,24.25-21.1,24.25-47.13s-10.86-47.13-24.25-47.13c-9.29,0-17.36,10.15-21.43,25.06a41.47,41.47,0,0,1-5.4-1.66V271.3h134.7a39.47,39.47,0,0,1,3.52,9.44c-14.95,4.06-25.14,12.11-25.14,21.37,0,13.35,21.17,24.18,47.28,24.18s47.28-10.83,47.28-24.18c0-9.26-10.19-17.31-25.14-21.37a39.47,39.47,0,0,1,3.52-9.44Z"/><path class="cls-4" d="M666.21,60.52c0,26,10.85,47.13,24.25,47.13,9.29,0,17.36-10.16,21.43-25.06a39.3,39.3,0,0,1,10.56,4.11V271.3h-87a40,40,0,0,1-2.89-8.2c14.95-4.06,25.14-12.1,25.14-21.36,0-13.36-21.17-24.18-47.28-24.18s-47.28,10.82-47.28,24.18c0,9.26,10.19,17.3,25.14,21.36a40,40,0,0,1-2.89,8.2h-103V166.08a40.14,40.14,0,0,1,8.36-3c4.07,14.9,12.14,25.06,21.43,25.06,13.4,0,24.26-21.1,24.26-47.13s-10.86-47.13-24.26-47.13c-9.29,0-17.36,10.16-21.43,25.06a40.14,40.14,0,0,1-8.36-2.95V1.83h240V34.34a39,39,0,0,1-10.56,4.11c-4.07-14.9-12.14-25.06-21.43-25.06C677.06,13.39,666.21,34.49,666.21,60.52Z"/><path class="cls-4" d="M293.53,449.78c0,26-10.86,47.13-24.25,47.13-9.29,0-17.36-10.16-21.43-25.06a40,40,0,0,0-5.4,1.66v66.93H2.45V271.3h240V426.05a41.47,41.47,0,0,0,5.4,1.66c4.07-14.91,12.14-25.06,21.43-25.06C282.67,402.65,293.53,423.75,293.53,449.78Z"/><path class="cls-4" d="M297.92,193c0,26-10.86,47.13-24.26,47.13-9.15,0-17.11-9.84-21.24-24.37a23.29,23.29,0,0,0-10,4.6v51H84.87a24.7,24.7,0,0,0-2.57,6.9c14.58,4.11,24.45,12.05,24.45,21.17,0,13.36-21.17,24.18-47.28,24.18s-47.28-10.82-47.28-24.18c0-9.12,9.88-17.06,24.46-21.17a24.36,24.36,0,0,0-2.58-6.9H2.45V1.5h240V51c-1.34.47-2.77.88-4.29,1.25C234.09,37.33,226,27.17,216.73,27.17c-13.4,0-24.26,21.11-24.26,47.13s10.86,47.13,24.26,47.13c9.29,0,17.36-10.15,21.43-25.06,1.52.36,3,.79,4.29,1.25v68a23.17,23.17,0,0,0,10,4.61c4.13-14.53,12.09-24.37,21.24-24.37C287.06,145.85,297.92,166.94,297.92,193Z"/><path class="cls-4" d="M536.5,140.73c0,26-10.86,47.13-24.26,47.13-9.29,0-17.36-10.15-21.43-25.06a40.14,40.14,0,0,0-8.36,2.95V271.3h-54a39.47,39.47,0,0,0-3.52,9.44c14.95,4.06,25.14,12.11,25.14,21.37,0,13.35-21.17,24.18-47.28,24.18s-47.28-10.83-47.28-24.18c0-9.26,10.19-17.31,25.14-21.37a39.47,39.47,0,0,0-3.52-9.44H242.45v-51a23.29,23.29,0,0,1,10-4.6c4.13,14.53,12.09,24.37,21.24,24.37,13.4,0,24.26-21.1,24.26-47.13s-10.86-47.12-24.26-47.12c-9.15,0-17.11,9.84-21.24,24.37a23.17,23.17,0,0,1-10-4.61v-68c-1.34-.46-2.77-.89-4.29-1.25-4.07,14.91-12.14,25.06-21.43,25.06-13.4,0-24.26-21.1-24.26-47.13s10.86-47.13,24.26-47.13c9.29,0,17.36,10.16,21.43,25.07,1.52-.37,3-.78,4.29-1.25V1.5h240V115.71a39.57,39.57,0,0,0,8.36,3c4.07-14.9,12.14-25.06,21.43-25.06C525.64,93.6,536.5,114.71,536.5,140.73Z"/><path class="cls-4" d="M962.45,1.83V271.3H831.69q-.36-1.19-.66-2.46c15-4.06,25.14-12.1,25.14-21.37,0-13.35-21.17-24.17-47.28-24.17s-47.28,10.82-47.28,24.17c0,9.27,10.19,17.31,25.15,21.37-.21.85-.43,1.67-.67,2.46H722.45V86.7a39.3,39.3,0,0,0-10.56-4.11c-4.07,14.9-12.14,25.06-21.43,25.06-13.4,0-24.25-21.1-24.25-47.13s10.85-47.13,24.25-47.13c9.29,0,17.36,10.16,21.43,25.06a39,39,0,0,0,10.56-4.11V1.83Z"/><path class="cls-4" d="M907.24,415c0,25.64,10.87,46.42,24.27,46.42,9.3,0,17.38-10,21.45-24.68a40,40,0,0,1,9.49,3.46V541.09H863.7a40.14,40.14,0,0,1-3.46-9.48c14.69-4.07,24.69-12.15,24.69-21.45,0-13.4-20.79-24.27-46.42-24.27s-46.43,10.87-46.43,24.27c0,9.3,10,17.38,24.69,21.45a40.58,40.58,0,0,1-3.46,9.48H722.45V482.2a41.82,41.82,0,0,0-4.8-1.44c-4.07,14.91-12.14,25.06-21.43,25.06-13.4,0-24.26-21.1-24.26-47.13s10.86-47.13,24.26-47.13c9.29,0,17.36,10.15,21.43,25.06a41.82,41.82,0,0,0,4.8-1.44v-59.9a38.93,38.93,0,0,1,9.11-3.33s0,.09,0,.14c2.5,9.11,6.5,16.42,11.36,20.7l.37.33c.34.28.67.55,1,.8A14.49,14.49,0,0,0,753,397c13.39,0,24.25-21.1,24.25-47.13,0-19.5-6.09-36.23-14.78-43.4l-.44-.35a14.6,14.6,0,0,0-9-3.38c-9.29,0-17.36,10.16-21.43,25.06a39.47,39.47,0,0,1-9-3.25l-.14-.07V271.3h63.64c.24-.79.46-1.61.67-2.46-15-4.06-25.15-12.1-25.15-21.37,0-13.35,21.17-24.17,47.28-24.17s47.28,10.82,47.28,24.17c0,9.27-10.19,17.31-25.14,21.37q.3,1.28.66,2.46H962.45V389.84A40.39,40.39,0,0,1,953,393.3c-4.07-14.68-12.15-24.68-21.45-24.68C918.11,368.62,907.24,389.4,907.24,415Z"/><path class="cls-4" d="M482.45,810.56v211.5a37.75,37.75,0,0,1-13.71,6.16c-4.07-14.91-12.14-25.06-21.43-25.06-13.4,0-24.26,21.1-24.26,47.13,0,11.28,2,21.63,5.45,29.74h-186v-67.25a41.45,41.45,0,0,1,5.4-1.67c4.07,14.9,12.14,25.06,21.43,25.06,13.39,0,24.25-21.1,24.25-47.13s-10.86-47.12-24.25-47.12c-9.29,0-17.36,10.15-21.43,25.06a41.45,41.45,0,0,1-5.4-1.67V810.56h134.7a39.72,39.72,0,0,1,3.52,9.45c-14.95,4.06-25.14,12.11-25.14,21.37,0,13.35,21.17,24.17,47.28,24.17s47.28-10.82,47.28-24.17c0-9.26-10.19-17.31-25.14-21.37a39.72,39.72,0,0,1,3.52-9.45Z"/><path class="cls-4" d="M293.53,989c0,26-10.86,47.13-24.25,47.13-9.29,0-17.36-10.16-21.43-25.06a41.45,41.45,0,0,0-5.4,1.67v66.93H2.45V810.56h240V965.31a41.45,41.45,0,0,0,5.4,1.67c4.07-14.91,12.14-25.06,21.43-25.06C282.67,941.92,293.53,963,293.53,989Z"/><path class="cls-4" d="M297.92,732.24c0,26-10.86,47.13-24.26,47.13-9.15,0-17.11-9.85-21.24-24.37a23.17,23.17,0,0,0-10,4.6v51H84.87a25,25,0,0,0-2.57,6.9c14.58,4.12,24.45,12.06,24.45,21.18,0,13.35-21.17,24.18-47.28,24.18S12.19,852,12.19,838.64c0-9.12,9.88-17.06,24.46-21.18a24.6,24.6,0,0,0-2.58-6.9H2.45V540.77h240v49.48q-2,.71-4.29,1.26c-4.07-14.91-12.14-25.07-21.43-25.07-13.4,0-24.26,21.1-24.26,47.13s10.86,47.13,24.26,47.13c9.29,0,17.36-10.16,21.43-25.06a42.68,42.68,0,0,1,4.29,1.25v68a23.4,23.4,0,0,0,10,4.61c4.13-14.54,12.09-24.38,21.24-24.38C287.06,685.11,297.92,706.21,297.92,732.24Z"/><path class="cls-4" d="M722.3,1080.37H482.45v-1.53a37.81,37.81,0,0,0-13.72-6.16,60.77,60.77,0,0,1-2.62,7.69c-4.44,10.6-11.22,17.38-18.8,17.38s-14.37-6.78-18.82-17.38c-3.4-8.12-5.44-18.47-5.44-29.75,0-26,10.86-47.13,24.26-47.13,9.28,0,17.36,10.15,21.42,25.06a37.81,37.81,0,0,0,13.72-6.16V810.56h103a39.71,39.71,0,0,0,2.89-8.19c-14.95-4.06-25.14-12.1-25.14-21.37,0-13.35,21.17-24.17,47.28-24.17s47.28,10.82,47.28,24.17c0,9.27-10.19,17.31-25.14,21.37a39.13,39.13,0,0,0,2.89,8.19h86.83v53.09l.14.07v0a39.47,39.47,0,0,0,9.1,3.32C735.63,852.17,743.69,842,753,842a14.53,14.53,0,0,1,8.89,3.27l.44.35c8.69,7.17,14.78,23.9,14.78,43.4,0,26-10.86,47.13-24.25,47.13a14.49,14.49,0,0,1-8.66-3.09c-.33-.25-.66-.52-1-.8l-.37-.33c-4.82-4.33-8.79-11.65-11.27-20.73l-.09,0,0-.14a39.85,39.85,0,0,0-9.11,3.33v59.91a41.82,41.82,0,0,1-4.8,1.44c-4.07-14.91-12.14-25.06-21.43-25.06-13.4,0-24.26,21.1-24.26,47.13S682.68,1045,696.08,1045c9.29,0,17.36-10.15,21.43-25.06a41.85,41.85,0,0,1,4.8,1.43Z"/><path class="cls-4" d="M962.45,810.56v269.8h-240v-58.9a41.85,41.85,0,0,0-4.8-1.43c-4.07,14.9-12.14,25.06-21.43,25.06-13.4,0-24.26-21.1-24.26-47.13s10.86-47.13,24.26-47.13c9.29,0,17.36,10.15,21.43,25.06a41.82,41.82,0,0,0,4.8-1.44V914.54a39.85,39.85,0,0,1,9.11-3.33l0,.14c2.5,9.11,6.5,16.42,11.36,20.71l.37.32c.34.29.67.56,1,.8a14.49,14.49,0,0,0,8.66,3.09c13.39,0,24.25-21.09,24.25-47.12,0-19.5-6.09-36.23-14.78-43.4l-.44-.35a14.54,14.54,0,0,0-9-3.38c-9.29,0-17.36,10.15-21.43,25.06a39.46,39.46,0,0,1-9-3.26l-.14-.06v-53.2h63.64c.24-.79.46-1.6.67-2.45-15-4.07-25.15-12.11-25.15-21.37,0-13.35,21.17-24.18,47.28-24.18s47.28,10.83,47.28,24.18C856.17,796,846,804,831,808.11c.2.85.42,1.66.66,2.45Z"/><path class="cls-4" d="M666.21,599.79c0,26,10.85,47.12,24.25,47.12,9.29,0,17.36-10.15,21.43-25.06A39.63,39.63,0,0,1,722.45,626V810.56h-87a39.71,39.71,0,0,1-2.89-8.19c14.95-4.06,25.14-12.11,25.14-21.37,0-13.35-21.17-24.18-47.28-24.18S563.17,767.65,563.17,781c0,9.26,10.19,17.31,25.14,21.37a39.71,39.71,0,0,1-2.89,8.19h-103V705.35a40.71,40.71,0,0,1,8.36-3c4.07,14.91,12.14,25.06,21.43,25.06,13.4,0,24.26-21.09,24.26-47.12s-10.86-47.13-24.26-47.13c-9.29,0-17.36,10.16-21.43,25.06a40.73,40.73,0,0,1-8.36-3V541.1h240v32.51a39.3,39.3,0,0,1-10.56,4.11c-4.07-14.9-12.14-25.06-21.43-25.06C677.06,552.66,666.21,573.76,666.21,599.79Z"/><path class="cls-4" d="M536.5,680c0,26-10.86,47.13-24.26,47.13-9.29,0-17.36-10.16-21.43-25.06a40.14,40.14,0,0,0-8.36,2.95V810.57h-54A39.47,39.47,0,0,0,425,820c14.95,4.06,25.14,12.11,25.14,21.37,0,13.35-21.17,24.18-47.28,24.18s-47.28-10.83-47.28-24.18c0-9.26,10.19-17.31,25.14-21.37a39.47,39.47,0,0,0-3.52-9.44H242.45v-51a23.17,23.17,0,0,1,10-4.6c4.13,14.53,12.09,24.37,21.24,24.37,13.4,0,24.26-21.1,24.26-47.13s-10.86-47.13-24.26-47.13c-9.15,0-17.11,9.84-21.24,24.38a23.29,23.29,0,0,1-10-4.61v-68a42.68,42.68,0,0,0-4.29-1.25c-4.07,14.9-12.14,25.06-21.43,25.06-13.4,0-24.26-21.1-24.26-47.13s10.86-47.13,24.26-47.13c9.29,0,17.36,10.16,21.43,25.07,1.52-.37,3-.79,4.29-1.25V540.77H428.36c0,.11.08.22.13.33,4.45,10.61,11.22,17.38,18.82,17.38s14.36-6.77,18.8-17.38c.05-.11.09-.22.13-.33h16.21V655a40.14,40.14,0,0,0,8.36,2.95c4.07-14.9,12.14-25.06,21.43-25.06C525.64,632.87,536.5,654,536.5,680Z"/><path class="cls-4" d="M762.32,306.37l-.44-.34a14.53,14.53,0,0,0-8.89-3.27c-9.3,0-17.36,10.15-21.44,25.06a39.93,39.93,0,0,1-9.1-3.33v0l-.14-.07V271.3H635.48a39,39,0,0,1-2.89-8.2c14.95-4.06,25.14-12.1,25.14-21.36,0-13.35-21.17-24.18-47.28-24.18s-47.28,10.83-47.28,24.18c0,9.26,10.19,17.3,25.14,21.36a39.6,39.6,0,0,1-2.89,8.2h-103V483.13a37.81,37.81,0,0,1-13.72,6.16c-4.06-14.92-12.14-25.06-21.42-25.06-13.4,0-24.26,21.09-24.26,47.13,0,11.12,2,21.35,5.31,29.41,0,.11.08.22.13.33,4.45,10.61,11.22,17.38,18.82,17.38s14.36-6.77,18.8-17.38c.05-.11.09-.22.13-.33a61.47,61.47,0,0,0,2.49-7.35,37.81,37.81,0,0,1,13.72,6.15v1.53H722.3v-59a41.82,41.82,0,0,0-4.8-1.44c-4.07,14.91-12.14,25.06-21.43,25.06-13.4,0-24.26-21.1-24.26-47.13s10.86-47.13,24.26-47.13c9.29,0,17.36,10.16,21.43,25.06a41.85,41.85,0,0,0,4.8-1.43V375.17a39.85,39.85,0,0,1,9.11-3.33c0,.05,0,.09,0,.14l.09,0c2.48,9.09,6.45,16.4,11.27,20.74l.37.32c.34.29.67.55,1,.8a14.49,14.49,0,0,0,8.66,3.09c13.39,0,24.25-21.09,24.25-47.12C777.1,330.28,771,313.54,762.32,306.37Z"/><path class="cls-4" d="M1442.45,271.3V482.8a37.67,37.67,0,0,0,13.71,6.15c4.07-14.91,12.14-25.06,21.43-25.06,13.39,0,24.25,21.1,24.25,47.13,0,11.28-2,21.63-5.44,29.75h186V473.51a40.89,40.89,0,0,0-5.4-1.66c-4.07,14.9-12.14,25.06-21.43,25.06-13.4,0-24.26-21.1-24.26-47.13s10.86-47.13,24.26-47.13c9.29,0,17.36,10.15,21.43,25.06a42.45,42.45,0,0,0,5.4-1.66V271.3h-134.7a39.47,39.47,0,0,0-3.53,9.44c15,4.06,25.14,12.11,25.14,21.37,0,13.35-21.16,24.18-47.27,24.18s-47.28-10.83-47.28-24.18c0-9.26,10.19-17.31,25.14-21.37a39.47,39.47,0,0,0-3.53-9.44Z"/><path class="cls-4" d="M1258.69,60.52c0,26-10.86,47.13-24.26,47.13-9.29,0-17.35-10.16-21.43-25.06a39.22,39.22,0,0,0-10.55,4.11V271.3h87a40,40,0,0,0,2.9-8.2c-15-4.06-25.14-12.1-25.14-21.36,0-13.36,21.16-24.18,47.27-24.18s47.28,10.82,47.28,24.18c0,9.26-10.19,17.3-25.14,21.36a40.62,40.62,0,0,0,2.89,8.2h103V166.08a40.24,40.24,0,0,0-8.37-3c-4.07,14.9-12.14,25.06-21.43,25.06-13.39,0-24.25-21.1-24.25-47.13s10.86-47.13,24.25-47.13c9.29,0,17.36,10.16,21.43,25.06a40.24,40.24,0,0,0,8.37-2.95V1.83h-240V34.34A38.9,38.9,0,0,0,1213,38.45c4.08-14.9,12.14-25.06,21.43-25.06C1247.83,13.39,1258.69,34.49,1258.69,60.52Z"/><path class="cls-4" d="M1631.36,449.78c0,26,10.86,47.13,24.26,47.13,9.29,0,17.36-10.16,21.43-25.06a40.89,40.89,0,0,1,5.4,1.66v66.93h240V271.3h-240V426.05a42.45,42.45,0,0,1-5.4,1.66c-4.07-14.91-12.14-25.06-21.43-25.06C1642.22,402.65,1631.36,423.75,1631.36,449.78Z"/><path class="cls-4" d="M1627,193c0,26,10.86,47.13,24.25,47.13,9.15,0,17.12-9.84,21.25-24.37a23.35,23.35,0,0,1,10,4.6v51H1840a24.7,24.7,0,0,1,2.57,6.9c-14.58,4.11-24.46,12.05-24.46,21.17,0,13.36,21.17,24.18,47.28,24.18s47.28-10.82,47.28-24.18c0-9.12-9.87-17.06-24.45-21.17a24.7,24.7,0,0,1,2.57-6.9h31.63V1.5h-240V51a44.62,44.62,0,0,0,4.29,1.25c4.07-14.91,12.14-25.07,21.43-25.07,13.39,0,24.25,21.11,24.25,47.13s-10.86,47.13-24.25,47.13c-9.29,0-17.36-10.15-21.43-25.06a44.62,44.62,0,0,0-4.29,1.25v68a23.23,23.23,0,0,1-10,4.61c-4.13-14.53-12.1-24.37-21.25-24.37C1637.84,145.85,1627,166.94,1627,193Z"/><path class="cls-4" d="M1388.4,140.73c0,26,10.86,47.13,24.25,47.13,9.29,0,17.36-10.15,21.43-25.06a40.24,40.24,0,0,1,8.37,2.95V271.3h54a39.47,39.47,0,0,1,3.53,9.44c-15,4.06-25.14,12.11-25.14,21.37,0,13.35,21.16,24.18,47.28,24.18s47.27-10.83,47.27-24.18c0-9.26-10.18-17.31-25.14-21.37a39.47,39.47,0,0,1,3.53-9.44h134.7v-51a23.35,23.35,0,0,0-10-4.6c-4.13,14.53-12.1,24.37-21.25,24.37C1637.84,240.1,1627,219,1627,193s10.86-47.12,24.25-47.12c9.15,0,17.12,9.84,21.25,24.37a23.23,23.23,0,0,0,10-4.61v-68a44.62,44.62,0,0,1,4.29-1.25c4.07,14.91,12.14,25.06,21.43,25.06,13.39,0,24.25-21.1,24.25-47.13s-10.86-47.13-24.25-47.13c-9.29,0-17.36,10.16-21.43,25.07a44.62,44.62,0,0,1-4.29-1.25V1.5h-240V115.71a39.67,39.67,0,0,1-8.37,3c-4.07-14.9-12.14-25.06-21.43-25.06C1399.26,93.6,1388.4,114.71,1388.4,140.73Z"/><path class="cls-4" d="M962.45,1.83V271.3H1093.2c.24-.79.46-1.61.67-2.46-15-4.06-25.15-12.1-25.15-21.37,0-13.35,21.17-24.17,47.28-24.17s47.28,10.82,47.28,24.17c0,9.27-10.19,17.31-25.14,21.37q.3,1.28.66,2.46h63.65V86.7A39.22,39.22,0,0,1,1213,82.59c4.08,14.9,12.14,25.06,21.43,25.06,13.4,0,24.26-21.1,24.26-47.13s-10.86-47.13-24.26-47.13c-9.29,0-17.35,10.16-21.43,25.06a38.9,38.9,0,0,1-10.55-4.11V1.83Z"/><path class="cls-4" d="M1442.45,810.56v211.5a37.67,37.67,0,0,0,13.71,6.16c4.07-14.91,12.14-25.06,21.43-25.06,13.39,0,24.25,21.1,24.25,47.13,0,11.28-2,21.63-5.44,29.74h186v-67.25a42.43,42.43,0,0,0-5.4-1.67c-4.07,14.9-12.14,25.06-21.43,25.06-13.4,0-24.26-21.1-24.26-47.13s10.86-47.12,24.26-47.12c9.29,0,17.36,10.15,21.43,25.06a42.43,42.43,0,0,0,5.4-1.67V810.56h-134.7a39.72,39.72,0,0,0-3.53,9.45c15,4.06,25.14,12.11,25.14,21.37,0,13.35-21.16,24.17-47.27,24.17s-47.28-10.82-47.28-24.17c0-9.26,10.19-17.31,25.14-21.37a39.72,39.72,0,0,0-3.53-9.45Z"/><path class="cls-4" d="M1631.36,989c0,26,10.86,47.13,24.26,47.13,9.29,0,17.36-10.16,21.43-25.06a42.43,42.43,0,0,1,5.4,1.67v66.93h240V810.56h-240V965.31a42.43,42.43,0,0,1-5.4,1.67c-4.07-14.91-12.14-25.06-21.43-25.06C1642.22,941.92,1631.36,963,1631.36,989Z"/><path class="cls-4" d="M1627,732.24c0,26,10.86,47.13,24.25,47.13,9.15,0,17.12-9.85,21.25-24.37a23.23,23.23,0,0,1,10,4.6v51H1840a25,25,0,0,1,2.57,6.9c-14.58,4.12-24.46,12.06-24.46,21.18,0,13.35,21.17,24.18,47.28,24.18s47.28-10.83,47.28-24.18c0-9.12-9.87-17.06-24.45-21.18a25,25,0,0,1,2.57-6.9h31.63V540.77h-240v49.48a44.58,44.58,0,0,0,4.29,1.26c4.07-14.91,12.14-25.07,21.43-25.07,13.39,0,24.25,21.1,24.25,47.13s-10.86,47.13-24.25,47.13c-9.29,0-17.36-10.16-21.43-25.06a41.92,41.92,0,0,0-4.29,1.25v68a23.46,23.46,0,0,1-10,4.61c-4.13-14.54-12.1-24.38-21.25-24.38C1637.84,685.11,1627,706.21,1627,732.24Z"/><path class="cls-4" d="M1202.59,1080.37h239.86v-1.53a37.67,37.67,0,0,1,13.71-6.16,60.77,60.77,0,0,0,2.62,7.69c4.44,10.6,11.22,17.38,18.81,17.38s14.36-6.78,18.81-17.38c3.4-8.12,5.44-18.47,5.44-29.75,0-26-10.86-47.13-24.25-47.13-9.29,0-17.36,10.15-21.43,25.06a37.67,37.67,0,0,1-13.71-6.16V810.56h-103a40.3,40.3,0,0,1-2.89-8.19c15-4.06,25.14-12.1,25.14-21.37,0-13.35-21.17-24.17-47.28-24.17s-47.27,10.82-47.27,24.17c0,9.27,10.18,17.31,25.14,21.37a39.7,39.7,0,0,1-2.9,8.19h-86.82v53.09l-.14.07v0a39.56,39.56,0,0,1-9.11,3.32c-4.07-14.91-12.14-25.06-21.43-25.06a14.58,14.58,0,0,0-8.9,3.27l-.44.35c-8.68,7.17-14.78,23.9-14.78,43.4,0,26,10.86,47.13,24.26,47.13a14.48,14.48,0,0,0,8.65-3.09c.33-.25.67-.52,1-.8l.37-.33c4.82-4.33,8.79-11.65,11.27-20.73l.09,0,0-.14a39.94,39.94,0,0,1,9.12,3.33v59.91a41.23,41.23,0,0,0,4.8,1.44c4.06-14.91,12.14-25.06,21.42-25.06,13.4,0,24.26,21.1,24.26,47.13s-10.86,47.13-24.26,47.13c-9.28,0-17.36-10.15-21.42-25.06a41.26,41.26,0,0,0-4.8,1.43Z"/><path class="cls-4" d="M962.45,541.1h100.61a40.24,40.24,0,0,1,3.3,9.15c-14.68,4.08-24.68,12.15-24.68,21.45,0,13.4,20.78,24.27,46.42,24.27s46.42-10.87,46.42-24.27c0-9.3-10-17.37-24.68-21.45a40.24,40.24,0,0,1,3.3-9.15h89.31v32.51a39.22,39.22,0,0,0,10.55,4.11c4.08-14.9,12.14-25.06,21.43-25.06,13.4,0,24.26,21.1,24.26,47.13s-10.86,47.13-24.26,47.13c-9.29,0-17.35-10.16-21.43-25.07a39.55,39.55,0,0,0-10.55,4.12v184.6H1138.8q-.36-1.19-.66-2.46c14.95-4.06,25.14-12.1,25.14-21.37,0-13.35-21.17-24.18-47.28-24.17s-47.28,10.82-47.28,24.17c0,9.27,10.19,17.31,25.15,21.37-.21.85-.43,1.67-.67,2.46H962.45"/><path class="cls-4" d="M962.45,810.56v269.8h240v-58.9a41.26,41.26,0,0,1,4.8-1.43c4.06,14.9,12.14,25.06,21.42,25.06,13.4,0,24.26-21.1,24.26-47.13s-10.86-47.13-24.26-47.13c-9.28,0-17.36,10.15-21.42,25.06a41.23,41.23,0,0,1-4.8-1.44V914.54a39.94,39.94,0,0,0-9.12-3.33l0,.14c-2.5,9.11-6.5,16.42-11.36,20.71a3.68,3.68,0,0,1-.37.32c-.33.29-.67.56-1,.8a14.48,14.48,0,0,1-8.65,3.09c-13.4,0-24.26-21.09-24.26-47.12,0-19.5,6.1-36.23,14.78-43.4l.44-.35a14.57,14.57,0,0,1,9-3.38c9.28,0,17.36,10.15,21.42,25.06a39.73,39.73,0,0,0,9-3.26l.14-.06v-53.2H1138.8c-.24-.79-.46-1.6-.67-2.45,15-4.07,25.15-12.11,25.15-21.37,0-13.35-21.17-24.18-47.28-24.18s-47.28,10.83-47.28,24.18c0,9.26,10.19,17.3,25.15,21.37-.21.85-.43,1.66-.67,2.45Z"/><path class="cls-4" d="M1258.69,599.79c0,26-10.86,47.12-24.26,47.12-9.29,0-17.35-10.15-21.43-25.06a39.55,39.55,0,0,0-10.55,4.12V810.56h87a39.7,39.7,0,0,0,2.9-8.19c-15-4.06-25.14-12.11-25.14-21.37,0-13.35,21.16-24.18,47.27-24.18s47.28,10.83,47.28,24.18c0,9.26-10.19,17.31-25.14,21.37a40.3,40.3,0,0,0,2.89,8.19h103V705.35a40.82,40.82,0,0,0-8.37-3c-4.07,14.91-12.14,25.06-21.43,25.06-13.39,0-24.25-21.09-24.25-47.12s10.86-47.13,24.25-47.13c9.29,0,17.36,10.16,21.43,25.06a40.83,40.83,0,0,0,8.37-3V541.1h-240v32.51a39.22,39.22,0,0,0,10.55,4.11c4.08-14.9,12.14-25.06,21.43-25.06C1247.83,552.66,1258.69,573.76,1258.69,599.79Z"/><path class="cls-4" d="M1388.39,680c0,26,10.86,47.13,24.26,47.13,9.29,0,17.36-10.16,21.43-25.06a40.14,40.14,0,0,1,8.36,2.95V810.57h54a39.47,39.47,0,0,1,3.52,9.44c-15,4.06-25.14,12.11-25.14,21.37,0,13.35,21.17,24.18,47.28,24.18s47.28-10.83,47.28-24.18c0-9.26-10.19-17.31-25.14-21.37a39.47,39.47,0,0,1,3.52-9.44h134.7v-51a23.17,23.17,0,0,0-10-4.6c-4.13,14.53-12.09,24.37-21.24,24.37-13.4,0-24.26-21.1-24.26-47.13s10.86-47.13,24.26-47.13c9.15,0,17.11,9.84,21.24,24.38a23.29,23.29,0,0,0,10-4.61v-68a42.68,42.68,0,0,1,4.29-1.25c4.07,14.9,12.14,25.06,21.43,25.06,13.4,0,24.26-21.1,24.26-47.13s-10.86-47.13-24.26-47.13c-9.29,0-17.36,10.16-21.43,25.07-1.52-.37-3-.79-4.29-1.25V540.77H1496.53c0,.11-.08.22-.13.33-4.45,10.61-11.22,17.38-18.82,17.38s-14.36-6.77-18.8-17.38c0-.11-.09-.22-.13-.33h-16.21V655a40.14,40.14,0,0,1-8.36,2.95c-4.07-14.9-12.14-25.06-21.43-25.06C1399.25,632.87,1388.39,654,1388.39,680Z"/><path class="cls-4" d="M1162.57,306.37l.44-.34a14.53,14.53,0,0,1,8.89-3.27c9.3,0,17.36,10.15,21.44,25.06a39.93,39.93,0,0,0,9.1-3.33v0a.61.61,0,0,0,.14-.07V271.3h86.83a39,39,0,0,0,2.89-8.2c-15-4.06-25.14-12.1-25.14-21.36,0-13.35,21.17-24.18,47.28-24.18s47.28,10.83,47.28,24.18c0,9.26-10.19,17.3-25.14,21.36a39.6,39.6,0,0,0,2.89,8.2h103V483.13a37.81,37.81,0,0,0,13.72,6.16c4.06-14.92,12.14-25.06,21.42-25.06,13.4,0,24.26,21.09,24.26,47.13,0,11.12-2,21.35-5.31,29.41,0,.11-.08.22-.13.33-4.45,10.61-11.22,17.38-18.82,17.38s-14.36-6.77-18.8-17.38c0-.11-.09-.22-.13-.33a61.47,61.47,0,0,1-2.49-7.35,37.81,37.81,0,0,0-13.72,6.15v1.53H1202.59v-59a41.82,41.82,0,0,1,4.8-1.44c4.07,14.91,12.14,25.06,21.43,25.06,13.4,0,24.26-21.1,24.26-47.13s-10.86-47.13-24.26-47.13c-9.29,0-17.36,10.16-21.43,25.06a41.85,41.85,0,0,1-4.8-1.43V375.17a39.85,39.85,0,0,0-9.11-3.33c0,.05,0,.09,0,.14l-.09,0c-2.48,9.09-6.45,16.4-11.27,20.74l-.37.32c-.34.29-.67.55-1,.8a14.49,14.49,0,0,1-8.66,3.09c-13.39,0-24.25-21.09-24.25-47.12C1147.79,330.28,1153.88,313.54,1162.57,306.37Z"/></g></g></svg>