<svg xmlns="http://www.w3.org/2000/svg" viewBox="0 0 1903.92 919.55"><defs><style>.cls-1{fill:#939083;}.cls-2{fill:#d3dd26;}.cls-3{fill:#f8d90f;}.cls-4{fill:#fffced;}.cls-5{fill:#f47920;}.cls-6{fill:#36bbca;}.cls-7{fill:#0591b4;}</style></defs><g id="Layer_2" data-name="Layer 2"><g id="Background"><polygon class="cls-1" points="6.32 4.21 2.11 4.21 2.11 139.29 121.47 139.29 121.47 135.08 6.32 135.08 6.32 4.21"/><polygon class="cls-1" points="142.66 4.21 138.45 4.21 138.45 139.29 257.81 139.29 257.81 135.08 142.66 135.08 142.66 4.21"/><polygon class="cls-1" points="280.16 4.21 275.95 4.21 275.95 139.29 395.31 139.29 395.31 135.08 280.16 135.08 280.16 4.21"/><polygon class="cls-1" points="531.65 135.08 416.5 135.08 416.5 4.21 412.29 4.21 412.29 139.29 531.65 139.29 531.65 135.08"/><polygon class="cls-1" points="553.77 4.21 549.56 4.21 549.56 139.29 668.92 139.29 668.92 135.08 553.77 135.08 553.77 4.21"/><polygon class="cls-1" points="690.12 4.21 685.9 4.21 685.9 139.29 805.26 139.29 805.26 135.08 690.12 135.08 690.12 4.21"/><polygon class="cls-1" points="827.85 4.21 823.17 4.21 823.17 139.29 942.53 139.29 942.53 135.08 827.85 135.08 827.85 4.21"/><polygon class="cls-1" points="964.19 4.21 959.51 4.21 959.51 139.29 1078.87 139.29 1078.87 135.08 964.19 135.08 964.19 4.21"/><polygon class="cls-1" points="1101 4.21 1096.79 4.21 1096.79 139.29 1216.14 139.29 1216.14 135.08 1101 135.08 1101 4.21"/><polygon class="cls-1" points="1237.34 4.21 1233.13 4.21 1233.13 139.29 1352.49 139.29 1352.49 135.08 1237.34 135.08 1237.34 4.21"/><polygon class="cls-1" points="1489.76 135.08 1374.61 135.08 1374.61 4.21 1370.4 4.21 1370.4 139.29 1489.76 139.29 1489.76 135.08"/><polygon class="cls-1" points="1510.95 4.21 1506.74 4.21 1506.74 139.29 1626.1 139.29 1626.1 135.08 1510.95 135.08 1510.95 4.21"/><polygon class="cls-1" points="1648.22 4.21 1644.01 4.21 1644.01 139.29 1763.37 139.29 1763.37 135.08 1648.22 135.08 1648.22 4.21"/><polygon class="cls-1" points="1784.56 4.21 1780.35 4.21 1780.35 139.29 1899.71 139.29 1899.71 135.08 1784.56 135.08 1784.56 4.21"/><polygon class="cls-2" points="6.32 4.21 121.47 4.21 121.47 135.08 125.68 135.08 125.68 0 6.32 0 6.32 4.21"/><rect class="cls-2" x="6.32" y="4.21" width="115.15" height="130.87"/><polygon class="cls-3" points="142.66 4.21 257.81 4.21 257.81 135.08 262.02 135.08 262.02 0 142.66 0 142.66 4.21"/><rect class="cls-3" x="142.66" y="4.21" width="115.15" height="130.87"/><polygon class="cls-2" points="280.16 4.21 395.31 4.21 395.31 135.08 399.52 135.08 399.52 0 280.16 0 280.16 4.21"/><rect class="cls-2" x="280.16" y="4.21" width="115.15" height="130.87"/><polygon class="cls-4" points="531.65 135.08 535.86 135.08 535.86 0 416.5 0 416.5 4.21 531.65 4.21 531.65 135.08"/><rect class="cls-4" x="416.5" y="4.21" width="115.15" height="130.87"/><polygon class="cls-4" points="553.77 4.21 668.92 4.21 668.92 135.08 673.13 135.08 673.13 0 553.77 0 553.77 4.21"/><rect class="cls-4" x="553.78" y="4.21" width="115.15" height="130.87"/><polygon class="cls-4" points="690.12 4.21 805.26 4.21 805.26 135.08 809.48 135.08 809.48 0 690.12 0 690.12 4.21"/><rect class="cls-4" x="690.12" y="4.21" width="115.15" height="130.87"/><polygon class="cls-5" points="827.85 4.21 942.53 4.21 942.53 135.08 947.21 135.08 947.21 0 827.85 0 827.85 4.21"/><rect class="cls-5" x="827.85" y="4.21" width="114.68" height="130.87"/><polygon class="cls-5" points="964.19 4.21 1078.87 4.21 1078.87 135.08 1083.55 135.08 1083.55 0 964.19 0 964.19 4.21"/><rect class="cls-5" x="964.19" y="4.21" width="114.68" height="130.87"/><polygon class="cls-4" points="1101 4.21 1216.14 4.21 1216.14 135.08 1220.36 135.08 1220.36 0 1101 0 1101 4.21"/><rect class="cls-4" x="1101" y="4.21" width="115.15" height="130.87"/><polygon class="cls-1" points="690.12 159.51 685.9 159.51 685.9 294.59 805.26 294.59 805.26 290.38 690.12 290.38 690.12 159.51"/><polygon class="cls-1" points="827.85 159.51 823.17 159.51 823.17 294.59 942.53 294.59 942.53 290.38 827.85 290.38 827.85 159.51"/><polygon class="cls-1" points="964.19 159.51 959.51 159.51 959.51 294.59 1078.87 294.59 1078.87 290.38 964.19 290.38 964.19 159.51"/><polygon class="cls-1" points="1101 159.51 1096.79 159.51 1096.79 294.59 1216.14 294.59 1216.14 290.38 1101 290.38 1101 159.51"/><polygon class="cls-4" points="690.12 159.51 805.26 159.51 805.26 290.38 809.48 290.38 809.48 155.3 690.12 155.3 690.12 159.51"/><rect class="cls-4" x="690.12" y="159.51" width="115.15" height="130.87"/><polygon class="cls-1" points="690.12 319.69 685.9 319.69 685.9 454.77 805.26 454.77 805.26 450.56 690.12 450.56 690.12 319.69"/><polygon class="cls-4" points="690.12 319.69 805.26 319.69 805.26 450.56 809.48 450.56 809.48 315.48 690.12 315.48 690.12 319.69"/><rect class="cls-4" x="690.12" y="319.69" width="115.15" height="130.87"/><polygon class="cls-1" points="692.05 477.19 687.84 477.19 687.84 612.27 807.2 612.27 807.2 608.06 692.05 608.06 692.05 477.19"/><polygon class="cls-4" points="692.05 477.19 807.2 477.19 807.2 608.06 811.41 608.06 811.41 472.98 692.05 472.98 692.05 477.19"/><rect class="cls-4" x="692.05" y="477.19" width="115.15" height="130.87"/><polygon class="cls-4" points="827.85 159.51 942.53 159.51 942.53 290.38 947.21 290.38 947.21 155.3 827.85 155.3 827.85 159.51"/><rect class="cls-4" x="827.85" y="159.51" width="114.68" height="130.87"/><polygon class="cls-4" points="964.19 159.51 1078.87 159.51 1078.87 290.38 1083.55 290.38 1083.55 155.3 964.19 155.3 964.19 159.51"/><rect class="cls-4" x="964.19" y="159.51" width="114.68" height="130.87"/><polygon class="cls-4" points="1101 159.51 1216.14 159.51 1216.14 290.38 1220.36 290.38 1220.36 155.3 1101 155.3 1101 159.51"/><rect class="cls-4" x="1101" y="159.51" width="115.15" height="130.87"/><polygon class="cls-4" points="1237.34 4.21 1352.49 4.21 1352.49 135.08 1356.7 135.08 1356.7 0 1237.34 0 1237.34 4.21"/><rect class="cls-4" x="1237.34" y="4.21" width="115.15" height="130.87"/><polygon class="cls-3" points="1489.76 135.08 1493.97 135.08 1493.97 0 1374.61 0 1374.61 4.21 1489.76 4.21 1489.76 135.08"/><rect class="cls-3" x="1374.61" y="4.21" width="115.15" height="130.87"/><polygon class="cls-6" points="1510.95 4.21 1626.1 4.21 1626.1 135.08 1630.31 135.08 1630.31 0 1510.95 0 1510.95 4.21"/><rect class="cls-6" x="1510.95" y="4.21" width="115.15" height="130.87"/><polygon class="cls-3" points="1648.22 4.21 1763.37 4.21 1763.37 135.08 1767.58 135.08 1767.58 0 1648.22 0 1648.22 4.21"/><rect class="cls-3" x="1648.22" y="4.21" width="115.15" height="130.87"/><polygon class="cls-6" points="1784.56 4.21 1899.71 4.21 1899.71 135.08 1903.92 135.08 1903.92 0 1784.56 0 1784.56 4.21"/><rect class="cls-6" x="1784.56" y="4.21" width="115.15" height="130.87"/><polygon class="cls-1" points="6.32 157.4 2.11 157.4 2.11 292.49 121.47 292.49 121.47 288.27 6.32 288.27 6.32 157.4"/><polygon class="cls-1" points="142.66 157.4 138.45 157.4 138.45 292.49 257.81 292.49 257.81 288.27 142.66 288.27 142.66 157.4"/><polygon class="cls-1" points="280.16 157.4 275.95 157.4 275.95 292.49 395.31 292.49 395.31 288.27 280.16 288.27 280.16 157.4"/><polygon class="cls-1" points="531.65 288.27 416.5 288.27 416.5 157.4 412.29 157.4 412.29 292.49 531.65 292.49 531.65 288.27"/><polygon class="cls-1" points="553.77 157.4 549.56 157.4 549.56 292.49 668.92 292.49 668.92 288.27 553.77 288.27 553.77 157.4"/><polygon class="cls-1" points="1237.34 157.4 1233.13 157.4 1233.13 292.49 1352.49 292.49 1352.49 288.27 1237.34 288.27 1237.34 157.4"/><polygon class="cls-1" points="1489.76 288.27 1374.61 288.27 1374.61 157.4 1370.4 157.4 1370.4 292.49 1489.76 292.49 1489.76 288.27"/><polygon class="cls-1" points="1510.95 157.4 1506.74 157.4 1506.74 292.49 1626.1 292.49 1626.1 288.27 1510.95 288.27 1510.95 157.4"/><polygon class="cls-1" points="1648.22 157.4 1644.01 157.4 1644.01 292.49 1763.37 292.49 1763.37 288.27 1648.22 288.27 1648.22 157.4"/><polygon class="cls-1" points="1784.56 157.4 1780.35 157.4 1780.35 292.49 1899.71 292.49 1899.71 288.27 1784.56 288.27 1784.56 157.4"/><polygon class="cls-2" points="6.32 157.4 121.47 157.4 121.47 288.27 125.68 288.27 125.68 153.19 6.32 153.19 6.32 157.4"/><rect class="cls-2" x="6.32" y="157.4" width="115.15" height="130.87"/><polygon class="cls-2" points="142.66 157.4 257.81 157.4 257.81 288.27 262.02 288.27 262.02 153.19 142.66 153.19 142.66 157.4"/><rect class="cls-2" x="142.66" y="157.4" width="115.15" height="130.87"/><polygon class="cls-2" points="280.16 157.4 395.31 157.4 395.31 288.27 399.52 288.27 399.52 153.19 280.16 153.19 280.16 157.4"/><rect class="cls-2" x="280.16" y="157.4" width="115.15" height="130.87"/><polygon class="cls-4" points="531.65 288.27 535.86 288.27 535.86 153.19 416.5 153.19 416.5 157.4 531.65 157.4 531.65 288.27"/><rect class="cls-4" x="416.5" y="157.4" width="115.15" height="130.87"/><polygon class="cls-4" points="553.77 157.4 668.92 157.4 668.92 288.27 673.13 288.27 673.13 153.19 553.77 153.19 553.77 157.4"/><rect class="cls-4" x="553.78" y="157.4" width="115.15" height="130.87"/><polygon class="cls-4" points="1237.34 157.4 1352.49 157.4 1352.49 288.27 1356.7 288.27 1356.7 153.19 1237.34 153.19 1237.34 157.4"/><rect class="cls-4" x="1237.34" y="157.4" width="115.15" height="130.87"/><polygon class="cls-3" points="1489.76 288.27 1493.97 288.27 1493.97 153.19 1374.61 153.19 1374.61 157.4 1489.76 157.4 1489.76 288.27"/><rect class="cls-3" x="1374.61" y="157.4" width="115.15" height="130.87"/><polygon class="cls-3" points="1510.95 157.4 1626.1 157.4 1626.1 288.27 1630.31 288.27 1630.31 153.19 1510.95 153.19 1510.95 157.4"/><rect class="cls-3" x="1510.95" y="157.4" width="115.15" height="130.87"/><polygon class="cls-3" points="1648.22 157.4 1763.37 157.4 1763.37 288.27 1767.58 288.27 1767.58 153.19 1648.22 153.19 1648.22 157.4"/><rect class="cls-3" x="1648.22" y="157.4" width="115.15" height="130.87"/><polygon class="cls-4" points="1784.56 157.4 1899.71 157.4 1899.71 288.27 1903.92 288.27 1903.92 153.19 1784.56 153.19 1784.56 157.4"/><rect class="cls-4" x="1784.56" y="157.4" width="115.15" height="130.87"/><polygon class="cls-1" points="6.32 631.28 2.11 631.28 2.11 766.36 121.47 766.36 121.47 762.15 6.32 762.15 6.32 631.28"/><polygon class="cls-1" points="142.66 631.28 138.45 631.28 138.45 766.36 257.81 766.36 257.81 762.15 142.66 762.15 142.66 631.28"/><polygon class="cls-1" points="280.16 631.28 275.95 631.28 275.95 766.36 395.31 766.36 395.31 762.15 280.16 762.15 280.16 631.28"/><polygon class="cls-1" points="1510.95 631.28 1506.74 631.28 1506.74 766.36 1626.1 766.36 1626.1 762.15 1510.95 762.15 1510.95 631.28"/><polygon class="cls-1" points="1648.22 631.28 1644.01 631.28 1644.01 766.36 1763.37 766.36 1763.37 762.15 1648.22 762.15 1648.22 631.28"/><polygon class="cls-1" points="1784.56 631.28 1780.35 631.28 1780.35 766.36 1899.71 766.36 1899.71 762.15 1784.56 762.15 1784.56 631.28"/><polygon class="cls-4" points="6.32 631.28 121.47 631.28 121.47 762.15 125.68 762.15 125.68 627.06 6.32 627.06 6.32 631.28"/><rect class="cls-4" x="6.32" y="631.28" width="115.15" height="130.87"/><polygon class="cls-4" points="142.66 631.28 257.81 631.28 257.81 762.15 262.02 762.15 262.02 627.06 142.66 627.06 142.66 631.28"/><rect class="cls-4" x="142.66" y="631.28" width="115.15" height="130.87"/><polygon class="cls-4" points="280.16 631.28 395.31 631.28 395.31 762.15 399.52 762.15 399.52 627.06 280.16 627.06 280.16 631.28"/><rect class="cls-4" x="280.16" y="631.28" width="115.15" height="130.87"/><polygon class="cls-1" points="418.96 631.28 414.75 631.28 414.75 766.36 534.11 766.36 534.11 762.15 418.96 762.15 418.96 631.28"/><polygon class="cls-4" points="418.96 631.28 534.11 631.28 534.11 762.15 538.32 762.15 538.32 627.06 418.96 627.06 418.96 631.28"/><rect class="cls-4" x="418.96" y="631.28" width="115.15" height="130.87"/><polygon class="cls-1" points="1380.99 631.28 1376.78 631.28 1376.78 766.36 1496.14 766.36 1496.14 762.15 1380.99 762.15 1380.99 631.28"/><polygon class="cls-4" points="1380.99 631.28 1496.14 631.28 1496.14 762.15 1500.35 762.15 1500.35 627.06 1380.99 627.06 1380.99 631.28"/><rect class="cls-4" x="1380.99" y="631.28" width="115.15" height="130.87"/><polygon class="cls-7" points="1510.95 631.28 1626.1 631.28 1626.1 762.15 1630.31 762.15 1630.31 627.06 1510.95 627.06 1510.95 631.28"/><rect class="cls-7" x="1510.95" y="631.28" width="115.15" height="130.87"/><polygon class="cls-7" points="1648.22 631.28 1763.37 631.28 1763.37 762.15 1767.58 762.15 1767.58 627.06 1648.22 627.06 1648.22 631.28"/><rect class="cls-7" x="1648.22" y="631.28" width="115.15" height="130.87"/><polygon class="cls-5" points="1784.56 631.28 1899.71 631.28 1899.71 762.15 1903.92 762.15 1903.92 627.06 1784.56 627.06 1784.56 631.28"/><rect class="cls-5" x="1784.56" y="631.28" width="115.15" height="130.87"/><polygon class="cls-1" points="1784.46 478.11 1780.24 478.11 1780.24 613.19 1899.6 613.19 1899.6 608.98 1784.46 608.98 1784.46 478.11"/><polygon class="cls-5" points="1784.46 478.11 1899.6 478.11 1899.6 608.98 1903.82 608.98 1903.82 473.89 1784.46 473.89 1784.46 478.11"/><rect class="cls-5" x="1784.46" y="478.11" width="115.15" height="130.87"/><polygon class="cls-1" points="6.32 784.47 2.11 784.47 2.11 919.55 121.47 919.55 121.47 915.34 6.32 915.34 6.32 784.47"/><polygon class="cls-1" points="142.66 784.47 138.45 784.47 138.45 919.55 257.81 919.55 257.81 915.34 142.66 915.34 142.66 784.47"/><polygon class="cls-1" points="280.16 784.47 275.95 784.47 275.95 919.55 395.31 919.55 395.31 915.34 280.16 915.34 280.16 784.47"/><polygon class="cls-1" points="416.5 784.47 412.29 784.47 412.29 919.55 531.65 919.55 531.65 915.34 416.5 915.34 416.5 784.47"/><polygon class="cls-1" points="553.77 784.47 549.56 784.47 549.56 919.55 668.92 919.55 668.92 915.34 553.77 915.34 553.77 784.47"/><polygon class="cls-1" points="690.12 784.47 685.9 784.47 685.9 919.55 805.26 919.55 805.26 915.34 690.12 915.34 690.12 784.47"/><polygon class="cls-1" points="827.39 784.47 823.17 784.47 823.17 919.55 942.53 919.55 942.53 915.34 827.39 915.34 827.39 784.47"/><polygon class="cls-1" points="963.73 784.47 959.51 784.47 959.51 919.55 1078.87 919.55 1078.87 915.34 963.73 915.34 963.73 784.47"/><polygon class="cls-1" points="1101 784.47 1096.79 784.47 1096.79 919.55 1216.14 919.55 1216.14 915.34 1101 915.34 1101 784.47"/><polygon class="cls-1" points="1237.34 784.47 1233.13 784.47 1233.13 919.55 1352.49 919.55 1352.49 915.34 1237.34 915.34 1237.34 784.47"/><polygon class="cls-1" points="1374.61 784.47 1370.4 784.47 1370.4 919.55 1489.76 919.55 1489.76 915.34 1374.61 915.34 1374.61 784.47"/><polygon class="cls-1" points="1510.95 784.47 1506.74 784.47 1506.74 919.55 1626.1 919.55 1626.1 915.34 1510.95 915.34 1510.95 784.47"/><polygon class="cls-1" points="1648.22 784.47 1644.01 784.47 1644.01 919.55 1763.37 919.55 1763.37 915.34 1648.22 915.34 1648.22 784.47"/><polygon class="cls-1" points="1784.56 784.47 1780.35 784.47 1780.35 919.55 1899.71 919.55 1899.71 915.34 1784.56 915.34 1784.56 784.47"/><polygon class="cls-5" points="6.32 784.47 121.47 784.47 121.47 915.34 125.68 915.34 125.68 780.25 6.32 780.25 6.32 784.47"/><rect class="cls-5" x="6.32" y="784.47" width="115.15" height="130.87"/><polygon class="cls-5" points="142.66 784.47 257.81 784.47 257.81 915.34 262.02 915.34 262.02 780.25 142.66 780.25 142.66 784.47"/><rect class="cls-5" x="142.66" y="784.47" width="115.15" height="130.87"/><polygon class="cls-5" points="280.16 784.47 395.31 784.47 395.31 915.34 399.52 915.34 399.52 780.25 280.16 780.25 280.16 784.47"/><rect class="cls-5" x="280.16" y="784.47" width="115.15" height="130.87"/><polygon class="cls-5" points="416.5 784.47 531.65 784.47 531.65 915.34 535.86 915.34 535.86 780.25 416.5 780.25 416.5 784.47"/><rect class="cls-5" x="416.5" y="784.47" width="115.15" height="130.87"/><polygon class="cls-7" points="553.77 784.47 668.92 784.47 668.92 915.34 673.13 915.34 673.13 780.25 553.77 780.25 553.77 784.47"/><rect class="cls-7" x="553.78" y="784.47" width="115.15" height="130.87"/><polygon class="cls-7" points="690.12 784.47 805.26 784.47 805.26 915.34 809.48 915.34 809.48 780.25 690.12 780.25 690.12 784.47"/><rect class="cls-7" x="690.12" y="784.47" width="115.15" height="130.87"/><polygon class="cls-4" points="827.39 784.47 942.53 784.47 942.53 915.34 946.75 915.34 946.75 780.25 827.39 780.25 827.39 784.47"/><rect class="cls-4" x="827.39" y="784.47" width="115.15" height="130.87"/><polygon class="cls-4" points="963.73 784.47 1078.87 784.47 1078.87 915.34 1083.09 915.34 1083.09 780.25 963.73 780.25 963.73 784.47"/><rect class="cls-4" x="963.73" y="784.47" width="115.15" height="130.87"/><polygon class="cls-1" points="828.22 633.38 824 633.38 824 768.47 943.36 768.47 943.36 764.25 828.22 764.25 828.22 633.38"/><polygon class="cls-1" points="963.56 633.38 959.35 633.38 959.35 768.47 1078.7 768.47 1078.7 764.25 963.56 764.25 963.56 633.38"/><polygon class="cls-4" points="828.22 633.38 943.36 633.38 943.36 764.25 947.58 764.25 947.58 629.17 828.22 629.17 828.22 633.38"/><rect class="cls-4" x="828.22" y="633.38" width="115.15" height="130.87"/><polygon class="cls-4" points="963.56 633.38 1078.7 633.38 1078.7 764.25 1082.92 764.25 1082.92 629.17 963.56 629.17 963.56 633.38"/><rect class="cls-4" x="963.56" y="633.38" width="115.15" height="130.87"/><polygon class="cls-1" points="828.19 476 823.97 476 823.97 611.08 943.33 611.08 943.33 606.87 828.19 606.87 828.19 476"/><polygon class="cls-1" points="963.53 476 959.31 476 959.31 611.08 1078.67 611.08 1078.67 606.87 963.53 606.87 963.53 476"/><polygon class="cls-4" points="828.19 476 943.33 476 943.33 606.87 947.54 606.87 947.54 471.79 828.19 471.79 828.19 476"/><rect class="cls-4" x="828.19" y="476" width="115.15" height="130.87"/><polygon class="cls-4" points="963.53 476 1078.67 476 1078.67 606.87 1082.89 606.87 1082.89 471.79 963.53 471.79 963.53 476"/><rect class="cls-4" x="963.53" y="476" width="115.15" height="130.87"/><polygon class="cls-1" points="828.02 317.92 823.8 317.92 823.8 453 943.16 453 943.16 448.79 828.02 448.79 828.02 317.92"/><polygon class="cls-1" points="963.36 317.92 959.14 317.92 959.14 453 1078.5 453 1078.5 448.79 963.36 448.79 963.36 317.92"/><polygon class="cls-4" points="828.02 317.92 943.16 317.92 943.16 448.79 947.38 448.79 947.38 313.7 828.02 313.7 828.02 317.92"/><rect class="cls-4" x="828.02" y="317.91" width="115.15" height="130.87"/><polygon class="cls-4" points="963.36 317.92 1078.5 317.92 1078.5 448.79 1082.72 448.79 1082.72 313.7 963.36 313.7 963.36 317.92"/><rect class="cls-4" x="963.36" y="317.91" width="115.15" height="130.87"/><polygon class="cls-2" points="1101 784.47 1216.14 784.47 1216.14 915.34 1220.36 915.34 1220.36 780.25 1101 780.25 1101 784.47"/><rect class="cls-2" x="1101" y="784.47" width="115.15" height="130.87"/><polygon class="cls-2" points="1237.34 784.47 1352.49 784.47 1352.49 915.34 1356.7 915.34 1356.7 780.25 1237.34 780.25 1237.34 784.47"/><rect class="cls-2" x="1237.34" y="784.47" width="115.15" height="130.87"/><polygon class="cls-4" points="1374.61 784.47 1489.76 784.47 1489.76 915.34 1493.97 915.34 1493.97 780.25 1374.61 780.25 1374.61 784.47"/><rect class="cls-4" x="1374.61" y="784.47" width="115.15" height="130.87"/><polygon class="cls-4" points="1510.95 784.47 1626.1 784.47 1626.1 915.34 1630.31 915.34 1630.31 780.25 1510.95 780.25 1510.95 784.47"/><rect class="cls-4" x="1510.95" y="784.47" width="115.15" height="130.87"/><polygon class="cls-7" points="1648.22 784.47 1763.37 784.47 1763.37 915.34 1767.58 915.34 1767.58 780.25 1648.22 780.25 1648.22 784.47"/><rect class="cls-7" x="1648.22" y="784.47" width="115.15" height="130.87"/><polygon class="cls-5" points="1784.56 784.47 1899.71 784.47 1899.71 915.34 1903.92 915.34 1903.92 780.25 1784.56 780.25 1784.56 784.47"/><rect class="cls-5" x="1784.56" y="784.47" width="115.15" height="130.87"/><polygon class="cls-1" points="1899.6 449.57 1784.46 449.57 1784.46 318.7 1780.24 318.7 1780.24 453.79 1899.6 453.79 1899.6 449.57"/><polygon class="cls-4" points="1899.6 449.57 1903.82 449.57 1903.82 314.49 1784.46 314.49 1784.46 318.7 1899.6 318.7 1899.6 449.57"/><rect class="cls-4" x="1784.46" y="318.7" width="115.15" height="130.87"/><polygon class="cls-1" points="119.36 608.96 4.21 608.96 4.21 478.08 0 478.08 0 613.17 119.36 613.17 119.36 608.96"/><polygon class="cls-4" points="119.36 608.96 123.57 608.96 123.57 473.87 4.21 473.87 4.21 478.08 119.36 478.08 119.36 608.96"/><rect class="cls-4" x="4.21" y="478.09" width="115.15" height="130.87"/><polygon class="cls-1" points="119.36 449.57 4.21 449.57 4.21 318.7 0 318.7 0 453.79 119.36 453.79 119.36 449.57"/><polygon class="cls-4" points="119.36 449.57 123.57 449.57 123.57 314.49 4.21 314.49 4.21 318.7 119.36 318.7 119.36 449.57"/><rect class="cls-4" x="4.21" y="318.7" width="115.15" height="130.87"/><polygon class="cls-1" points="554.61 632.38 550.39 632.38 550.39 767.47 669.75 767.47 669.75 763.25 554.61 763.25 554.61 632.38"/><polygon class="cls-1" points="689.95 632.38 685.73 632.38 685.73 767.47 805.09 767.47 805.09 763.25 689.95 763.25 689.95 632.38"/><polygon class="cls-4" points="554.61 632.38 669.75 632.38 669.75 763.25 673.97 763.25 673.97 628.17 554.61 628.17 554.61 632.38"/><rect class="cls-4" x="554.61" y="632.38" width="115.15" height="130.87"/><polygon class="cls-4" points="689.95 632.38 805.09 632.38 805.09 763.25 809.3 763.25 809.3 628.17 689.95 628.17 689.95 632.38"/><rect class="cls-4" x="689.95" y="632.38" width="115.15" height="130.87"/><polygon class="cls-1" points="1101.83 633.38 1097.62 633.38 1097.62 768.47 1216.97 768.47 1216.97 764.25 1101.83 764.25 1101.83 633.38"/><polygon class="cls-1" points="1237.17 633.38 1232.96 633.38 1232.96 768.47 1352.32 768.47 1352.32 764.25 1237.17 764.25 1237.17 633.38"/><polygon class="cls-4" points="1101.83 633.38 1216.97 633.38 1216.97 764.25 1221.19 764.25 1221.19 629.17 1101.83 629.17 1101.83 633.38"/><rect class="cls-4" x="1101.83" y="633.38" width="115.15" height="130.87"/><polygon class="cls-4" points="1237.17 633.38 1352.32 633.38 1352.32 764.25 1356.53 764.25 1356.53 629.17 1237.17 629.17 1237.17 633.38"/><rect class="cls-4" x="1237.17" y="633.38" width="115.15" height="130.87"/><polygon class="cls-1" points="1101.8 476 1097.59 476 1097.59 611.08 1216.94 611.08 1216.94 606.87 1101.8 606.87 1101.8 476"/><polygon class="cls-1" points="1237.14 476 1232.92 476 1232.92 611.08 1352.29 611.08 1352.29 606.87 1237.14 606.87 1237.14 476"/><polygon class="cls-4" points="1101.8 476 1216.94 476 1216.94 606.87 1221.16 606.87 1221.16 471.79 1101.8 471.79 1101.8 476"/><rect class="cls-4" x="1101.8" y="476" width="115.15" height="130.87"/><polygon class="cls-4" points="1237.14 476 1352.29 476 1352.29 606.87 1356.5 606.87 1356.5 471.79 1237.14 471.79 1237.14 476"/><rect class="cls-4" x="1237.14" y="476" width="115.15" height="130.87"/><polygon class="cls-1" points="1101.63 317.92 1097.41 317.92 1097.41 453 1216.78 453 1216.78 448.79 1101.63 448.79 1101.63 317.92"/><polygon class="cls-1" points="1236.97 317.92 1232.76 317.92 1232.76 453 1352.12 453 1352.12 448.79 1236.97 448.79 1236.97 317.92"/><polygon class="cls-4" points="1101.63 317.92 1216.78 317.92 1216.78 448.79 1220.99 448.79 1220.99 313.7 1101.63 313.7 1101.63 317.92"/><rect class="cls-4" x="1101.63" y="317.91" width="115.15" height="130.87"/><polygon class="cls-4" points="1236.97 317.92 1352.12 317.92 1352.12 448.79 1356.33 448.79 1356.33 313.7 1236.97 313.7 1236.97 317.92"/><rect class="cls-4" x="1236.97" y="317.91" width="115.15" height="130.87"/><polygon class="cls-1" points="142.83 477.89 138.62 477.89 138.62 612.98 257.98 612.98 257.98 608.76 142.83 608.76 142.83 477.89"/><polygon class="cls-1" points="278.17 477.89 273.96 477.89 273.96 612.98 393.32 612.98 393.32 608.76 278.17 608.76 278.17 477.89"/><polygon class="cls-4" points="142.83 477.89 257.98 477.89 257.98 608.76 262.19 608.76 262.19 473.68 142.83 473.68 142.83 477.89"/><rect class="cls-4" x="142.83" y="477.89" width="115.15" height="130.87"/><polygon class="cls-4" points="278.17 477.89 393.32 477.89 393.32 608.76 397.53 608.76 397.53 473.68 278.17 473.68 278.17 477.89"/><rect class="cls-4" x="278.17" y="477.89" width="115.15" height="130.87"/><polygon class="cls-1" points="142.66 319.81 138.45 319.81 138.45 454.89 257.81 454.89 257.81 450.68 142.66 450.68 142.66 319.81"/><polygon class="cls-1" points="278 319.81 273.79 319.81 273.79 454.89 393.15 454.89 393.15 450.68 278 450.68 278 319.81"/><polygon class="cls-4" points="142.66 319.81 257.81 319.81 257.81 450.68 262.02 450.68 262.02 315.6 142.66 315.6 142.66 319.81"/><rect class="cls-4" x="142.66" y="319.81" width="115.15" height="130.87"/><polygon class="cls-4" points="278 319.81 393.15 319.81 393.15 450.68 397.36 450.68 397.36 315.6 278 315.6 278 319.81"/><rect class="cls-4" x="278" y="319.81" width="115.15" height="130.87"/><polygon class="cls-1" points="416.44 477.89 412.23 477.89 412.23 612.98 531.59 612.98 531.59 608.76 416.44 608.76 416.44 477.89"/><polygon class="cls-1" points="551.78 477.89 547.57 477.89 547.57 612.98 666.93 612.98 666.93 608.76 551.78 608.76 551.78 477.89"/><polygon class="cls-4" points="416.44 477.89 531.59 477.89 531.59 608.76 535.8 608.76 535.8 473.68 416.44 473.68 416.44 477.89"/><rect class="cls-4" x="416.44" y="477.89" width="115.15" height="130.87"/><polygon class="cls-4" points="551.78 477.89 666.93 477.89 666.93 608.76 671.14 608.76 671.14 473.68 551.78 473.68 551.78 477.89"/><rect class="cls-4" x="551.78" y="477.89" width="115.15" height="130.87"/><polygon class="cls-1" points="416.27 319.81 412.06 319.81 412.06 454.89 531.42 454.89 531.42 450.68 416.27 450.68 416.27 319.81"/><polygon class="cls-1" points="551.61 319.81 547.4 319.81 547.4 454.89 666.76 454.89 666.76 450.68 551.61 450.68 551.61 319.81"/><polygon class="cls-4" points="416.27 319.81 531.42 319.81 531.42 450.68 535.63 450.68 535.63 315.6 416.27 315.6 416.27 319.81"/><rect class="cls-4" x="416.27" y="319.81" width="115.15" height="130.87"/><polygon class="cls-4" points="551.61 319.81 666.76 319.81 666.76 450.68 670.97 450.68 670.97 315.6 551.61 315.6 551.61 319.81"/><rect class="cls-4" x="551.61" y="319.81" width="115.15" height="130.87"/><polygon class="cls-1" points="1376.34 476 1372.12 476 1372.12 611.08 1491.48 611.08 1491.48 606.87 1376.34 606.87 1376.34 476"/><polygon class="cls-4" points="1376.34 476 1491.48 476 1491.48 606.87 1495.7 606.87 1495.7 471.79 1376.34 471.79 1376.34 476"/><rect class="cls-4" x="1376.34" y="476" width="115.15" height="130.87"/><polygon class="cls-1" points="1376.17 317.92 1371.95 317.92 1371.95 453 1491.31 453 1491.31 448.79 1376.17 448.79 1376.17 317.92"/><polygon class="cls-4" points="1376.17 317.92 1491.31 317.92 1491.31 448.79 1495.53 448.79 1495.53 313.7 1376.17 313.7 1376.17 317.92"/><rect class="cls-4" x="1376.17" y="317.91" width="115.15" height="130.87"/><polygon class="cls-1" points="1514.61 476 1510.39 476 1510.39 611.08 1629.75 611.08 1629.75 606.87 1514.61 606.87 1514.61 476"/><polygon class="cls-1" points="1649.95 476 1645.73 476 1645.73 611.08 1765.09 611.08 1765.09 606.87 1649.95 606.87 1649.95 476"/><polygon class="cls-4" points="1514.61 476 1629.75 476 1629.75 606.87 1633.97 606.87 1633.97 471.79 1514.61 471.79 1514.61 476"/><rect class="cls-4" x="1514.61" y="476" width="115.15" height="130.87"/><polygon class="cls-4" points="1649.95 476 1765.09 476 1765.09 606.87 1769.31 606.87 1769.31 471.79 1649.95 471.79 1649.95 476"/><rect class="cls-4" x="1649.95" y="476" width="115.15" height="130.87"/><polygon class="cls-1" points="1514.44 317.92 1510.22 317.92 1510.22 453 1629.58 453 1629.58 448.79 1514.44 448.79 1514.44 317.92"/><polygon class="cls-1" points="1649.78 317.92 1645.57 317.92 1645.57 453 1764.92 453 1764.92 448.79 1649.78 448.79 1649.78 317.92"/><polygon class="cls-4" points="1514.44 317.92 1629.58 317.92 1629.58 448.79 1633.8 448.79 1633.8 313.7 1514.44 313.7 1514.44 317.92"/><rect class="cls-4" x="1514.44" y="317.91" width="115.15" height="130.87"/><polygon class="cls-4" points="1649.78 317.92 1764.92 317.92 1764.92 448.79 1769.14 448.79 1769.14 313.7 1649.78 313.7 1649.78 317.92"/><rect class="cls-4" x="1649.78" y="317.91" width="115.15" height="130.87"/></g></g></svg>