<svg xmlns="http://www.w3.org/2000/svg" viewBox="0 0 1920 1080"><defs><style>.cls-1{fill:#fffced;}.cls-2{fill:#939083;}.cls-3{fill:#f8d90f;}.cls-4{fill:#f47920;}.cls-5{fill:#36bbca;}.cls-6{fill:#d3dd26;}.cls-7{fill:#0591b4;}</style></defs><g id="Layer_2" data-name="Layer 2"><g id="Text"><path class="cls-1" d="M1920,0h-8V62.12h-4.21v4.21H1788.39V0h-12.77V62.12h-4.21v4.21H1652.05V0h-13.7V62.12h-4.21v4.21H1514.78V0H1502V62.12h-4.21v4.21H1378.44V0h-13.7V62.12h-4.22v4.21H1241.17V0H1228.4V62.12h-4.22v4.21H1104.82V0h-13.69V62.12h-4.22v4.21H967.55V0h-12.3V62.12h-4.68v4.21H831.21V0H818V62.12H813.3v4.21H693.94V0H681.17V62.12H677v4.21H557.6V0H543.9V62.12h-4.21v4.21H420.33V0H407.56V62.12h-4.21v4.21H284V0H270.06V62.12h-4.21v4.21H146.49V0H133.72V62.12H129.5v4.21H10.15V0H0V1080H10.15v-62.12h4.21v-4.21H133.72V1080h12.77v-62.12h4.21v-4.21H270.06V1080H284v-62.12h4.21v-4.21H407.56V1080h12.77v-62.12h4.21v-4.21H543.9V1080h13.7v-62.12h4.21v-4.21H681.17V1080h12.77v-62.12h4.21v-4.21H817.51V1080h13.7v-62.12h4.22v-4.21H954.79V1080h12.76v-62.12h4.22v-4.21h119.36V1080h13.69v-62.12H1109v-4.21H1228.4V1080h12.77v-62.12h4.21v-4.21h119.36V1080h13.7v-62.12h4.21v-4.21H1502V1080h12.77v-62.12H1519v-4.21h119.36V1080h13.7v-62.12h4.21v-4.21h119.36V1080h12.77v-62.12h4.21v-4.21H1912V1080h8ZM8,398.93h4.21v-4.22H131.61V529.8H127.4V534H8ZM8,693.39V558.31h4.21V554.1H131.61V689.18H127.4v4.21ZM133.72,995.56H129.5v4.22H10.15V864.69h4.21v-4.21H133.72Zm0-153.19H129.5v4.21H10.15V711.5h4.21v-4.21H133.72Zm0-473.87H129.5v4.21H10.15V237.63h4.21v-4.21H133.72Zm0-153.19H129.5v4.21H10.15V84.44h4.21V80.22H133.72ZM270.06,995.56h-4.21v4.22H146.49V864.69h4.21v-4.21H270.06Zm0-153.19h-4.21v4.21H146.49V711.5h4.21v-4.21H270.06Zm0-473.87h-4.21v4.21H146.49V237.63h4.21v-4.21H270.06Zm0-153.19h-4.21v4.21H146.49V84.44h4.21V80.22H270.06Zm137.5,780.25h-4.21v4.22H284V864.69h4.21v-4.21H407.56Zm0-153.19h-4.21v4.21H284V711.5h4.21v-4.21H407.56Zm0-473.87h-4.21v4.21H284V237.63h4.21v-4.21H407.56Zm0-153.19h-4.21v4.21H284V84.44h4.21V80.22H407.56ZM420.33,84.44h4.21V80.22H543.9V215.31h-4.21v4.21H420.33Zm0,153.19h4.21v-4.21H543.9V368.5h-4.21v4.21H420.33ZM543.9,995.56h-4.21v4.22H420.33V864.69h4.21v-4.21H543.9Zm2.46-153.19h-4.21v4.21H422.79V711.5H427v-4.21H546.36ZM681.17,995.56H677v4.22H557.6V864.69h4.21v-4.21H681.17Zm0-627.06H677v4.21H557.6V237.63h4.21v-4.21H681.17Zm0-153.19H677v4.21H557.6V84.44h4.21V80.22H681.17ZM817.51,995.56H813.3v4.22H693.94V864.69h4.21v-4.21H817.51Zm0-624.95H813.3v4.21H693.94V239.74h4.21v-4.22H817.51Zm0-155.3H813.3v4.21H693.94V84.44h4.21V80.22H817.51ZM954.79,995.56h-4.22v4.22H831.21V864.69h4.22v-4.21H954.79Zm.46-624.95h-4.68v4.21H831.21V239.74h4.68v-4.22H955.25Zm0-155.3h-4.68v4.21H831.21V84.44h4.68V80.22H955.25Zm135.88,780.25h-4.22v4.22H967.55V864.69h4.22v-4.21h119.36Zm.46-624.95h-4.68v4.21H967.55V239.74h4.68v-4.22h119.36Zm0-155.3h-4.68v4.21H967.55V84.44h4.68V80.22h119.36ZM1228.4,995.56h-4.22v4.22H1104.82V864.69H1109v-4.21H1228.4Zm0-624.95h-4.22v4.21H1104.82V239.74H1109v-4.22H1228.4Zm0-155.3h-4.22v4.21H1104.82V84.44H1109V80.22H1228.4Zm136.34,780.25h-4.22v4.22H1241.17V864.69h4.21v-4.21h119.36Zm0-627.06h-4.22v4.21H1241.17V237.63h4.21v-4.21h119.36Zm0-153.19h-4.22v4.21H1241.17V84.44h4.21V80.22h119.36Zm13.7-130.87h4.21V80.22H1502V215.31h-4.21v4.21H1378.44Zm0,153.19h4.21v-4.21H1502V368.5h-4.21v4.21H1378.44ZM1502,995.56h-4.21v4.22H1378.44V864.69h4.21v-4.21H1502Zm6.38-153.19h-4.21v4.21H1384.82V711.5H1389v-4.21h119.36Zm130,153.19h-4.21v4.22H1514.78V864.69H1519v-4.21h119.36Zm0-153.19h-4.21v4.21H1514.78V711.5H1519v-4.21h119.36Zm0-473.87h-4.21v4.21H1514.78V237.63H1519v-4.21h119.36Zm0-153.19h-4.21v4.21H1514.78V84.44H1519V80.22h119.36Zm137.27,780.25h-4.21v4.22H1652.05V864.69h4.21v-4.21h119.36Zm0-153.19h-4.21v4.21H1652.05V711.5h4.21v-4.21h119.36Zm0-473.87h-4.21v4.21H1652.05V237.63h4.21v-4.21h119.36Zm0-153.19h-4.21v4.21H1652.05V84.44h4.21V80.22h119.36Zm12.66,183.62h4.22v-4.22h119.35V529.8h-4.21V534H1788.28Zm0,294.46V558.31h4.22V554.1h119.35V689.18h-4.21v4.21ZM1912,995.56h-4.21v4.22H1788.39V864.69h4.21v-4.21H1912Zm0-153.19h-4.21v4.21H1788.39V711.5h4.21v-4.21H1912Zm0-473.87h-4.21v4.21H1788.39V237.63h4.21v-4.21H1912Zm0-153.19h-4.21v4.21H1788.39V84.44h4.21V80.22H1912Z"/><polygon class="cls-2" points="129.5 66.33 129.5 62.12 14.36 62.12 14.36 0 10.14 0 10.14 66.33 129.5 66.33"/><polygon class="cls-2" points="265.85 66.33 265.85 62.12 150.7 62.12 150.7 0 146.49 0 146.49 66.33 265.85 66.33"/><polygon class="cls-2" points="403.35 66.33 403.35 62.12 288.2 62.12 288.2 0 283.99 0 283.99 66.33 403.35 66.33"/><polygon class="cls-2" points="539.69 66.33 539.69 62.12 424.54 62.12 424.54 0 420.33 0 420.33 66.33 539.69 66.33"/><polygon class="cls-2" points="676.96 66.33 676.96 62.12 561.81 62.12 561.81 0 557.6 0 557.6 66.33 676.96 66.33"/><polygon class="cls-2" points="813.3 66.33 813.3 62.12 698.62 62.12 698.62 0 693.94 0 693.94 66.33 813.3 66.33"/><polygon class="cls-2" points="950.57 66.33 950.57 62.12 835.89 62.12 835.89 0 831.21 0 831.21 66.33 950.57 66.33"/><polygon class="cls-2" points="1086.91 66.33 1086.91 62.12 971.77 62.12 971.77 0 967.55 0 967.55 66.33 1086.91 66.33"/><polygon class="cls-2" points="1224.18 66.33 1224.18 62.12 1109.04 62.12 1109.04 0 1104.83 0 1104.83 66.33 1224.18 66.33"/><polygon class="cls-2" points="1360.53 66.33 1360.53 62.12 1245.38 62.12 1245.38 0 1241.16 0 1241.16 66.33 1360.53 66.33"/><polygon class="cls-2" points="1497.8 66.33 1497.8 62.12 1382.65 62.12 1382.65 0 1378.44 0 1378.44 66.33 1497.8 66.33"/><polygon class="cls-2" points="1634.14 66.33 1634.14 62.12 1518.99 62.12 1518.99 0 1514.78 0 1514.78 66.33 1634.14 66.33"/><polygon class="cls-2" points="1771.41 66.33 1771.41 62.12 1656.26 62.12 1656.26 0 1652.05 0 1652.05 66.33 1771.41 66.33"/><polygon class="cls-2" points="1907.75 66.33 1907.75 62.12 1792.6 62.12 1792.6 0 1788.39 0 1788.39 66.33 1907.75 66.33"/><rect class="cls-3" x="129.5" width="4.21" height="62.12"/><rect class="cls-3" x="14.36" width="115.15" height="62.12"/><rect class="cls-3" x="265.85" width="4.21" height="62.12"/><rect class="cls-3" x="150.7" width="115.15" height="62.12"/><rect class="cls-3" x="403.35" width="4.21" height="62.12"/><rect class="cls-3" x="288.2" width="115.15" height="62.12"/><rect class="cls-3" x="539.69" width="4.21" height="62.12"/><rect class="cls-3" x="424.54" width="115.15" height="62.12"/><rect class="cls-1" x="676.96" width="4.21" height="62.12"/><rect class="cls-1" x="561.81" width="115.15" height="62.12"/><rect class="cls-4" x="813.3" width="4.68" height="62.12"/><rect class="cls-4" x="698.62" width="114.68" height="62.12"/><rect class="cls-4" x="950.57" width="4.68" height="62.12"/><rect class="cls-4" x="835.89" width="114.68" height="62.12"/><rect class="cls-1" x="1086.91" width="4.21" height="62.12"/><rect class="cls-1" x="971.77" width="115.15" height="62.12"/><rect class="cls-1" x="1224.18" width="4.21" height="62.12"/><rect class="cls-1" x="1109.04" width="115.15" height="62.12"/><rect class="cls-1" x="1360.52" width="4.21" height="62.12"/><rect class="cls-1" x="1245.38" width="115.15" height="62.12"/><rect class="cls-1" x="1497.8" width="4.21" height="62.12"/><rect class="cls-1" x="1382.65" width="115.15" height="62.12"/><rect class="cls-5" x="1634.14" width="4.21" height="62.12"/><rect class="cls-5" x="1518.99" width="115.15" height="62.12"/><rect class="cls-5" x="1771.41" width="4.21" height="62.12"/><rect class="cls-5" x="1656.26" width="115.15" height="62.12"/><rect class="cls-5" x="1907.75" width="4.21" height="62.12"/><rect class="cls-5" x="1792.6" width="115.15" height="62.12"/><polygon class="cls-2" points="14.36 84.44 10.14 84.44 10.14 219.52 129.5 219.52 129.5 215.31 14.36 215.31 14.36 84.44"/><polygon class="cls-2" points="150.7 84.44 146.49 84.44 146.49 219.52 265.85 219.52 265.85 215.31 150.7 215.31 150.7 84.44"/><polygon class="cls-2" points="288.2 84.44 283.99 84.44 283.99 219.52 403.35 219.52 403.35 215.31 288.2 215.31 288.2 84.44"/><polygon class="cls-2" points="539.69 215.31 424.54 215.31 424.54 84.44 420.33 84.44 420.33 219.52 539.69 219.52 539.69 215.31"/><polygon class="cls-2" points="561.81 84.44 557.6 84.44 557.6 219.52 676.96 219.52 676.96 215.31 561.81 215.31 561.81 84.44"/><polygon class="cls-2" points="698.15 84.44 693.94 84.44 693.94 219.52 813.3 219.52 813.3 215.31 698.15 215.31 698.15 84.44"/><polygon class="cls-2" points="835.89 84.44 831.21 84.44 831.21 219.52 950.57 219.52 950.57 215.31 835.89 215.31 835.89 84.44"/><polygon class="cls-2" points="972.23 84.44 967.55 84.44 967.55 219.52 1086.91 219.52 1086.91 215.31 972.23 215.31 972.23 84.44"/><polygon class="cls-2" points="1109.04 84.44 1104.83 84.44 1104.83 219.52 1224.18 219.52 1224.18 215.31 1109.04 215.31 1109.04 84.44"/><polygon class="cls-2" points="1245.38 84.44 1241.16 84.44 1241.16 219.52 1360.53 219.52 1360.53 215.31 1245.38 215.31 1245.38 84.44"/><polygon class="cls-2" points="1497.8 215.31 1382.65 215.31 1382.65 84.44 1378.44 84.44 1378.44 219.52 1497.8 219.52 1497.8 215.31"/><polygon class="cls-2" points="1518.99 84.44 1514.78 84.44 1514.78 219.52 1634.14 219.52 1634.14 215.31 1518.99 215.31 1518.99 84.44"/><polygon class="cls-2" points="1656.26 84.44 1652.05 84.44 1652.05 219.52 1771.41 219.52 1771.41 215.31 1656.26 215.31 1656.26 84.44"/><polygon class="cls-2" points="1792.6 84.44 1788.39 84.44 1788.39 219.52 1907.75 219.52 1907.75 215.31 1792.6 215.31 1792.6 84.44"/><polygon class="cls-6" points="14.36 84.44 129.5 84.44 129.5 215.31 133.72 215.31 133.72 80.22 14.36 80.22 14.36 84.44"/><rect class="cls-6" x="14.36" y="84.44" width="115.15" height="130.87"/><polygon class="cls-3" points="150.7 84.44 265.85 84.44 265.85 215.31 270.06 215.31 270.06 80.22 150.7 80.22 150.7 84.44"/><rect class="cls-3" x="150.7" y="84.44" width="115.15" height="130.87"/><polygon class="cls-6" points="288.2 84.44 403.35 84.44 403.35 215.31 407.56 215.31 407.56 80.22 288.2 80.22 288.2 84.44"/><rect class="cls-6" x="288.2" y="84.44" width="115.15" height="130.87"/><polygon class="cls-1" points="539.69 215.31 543.9 215.31 543.9 80.22 424.54 80.22 424.54 84.44 539.69 84.44 539.69 215.31"/><rect class="cls-1" x="424.54" y="84.44" width="115.15" height="130.87"/><polygon class="cls-1" points="561.81 84.44 676.96 84.44 676.96 215.31 681.17 215.31 681.17 80.22 561.81 80.22 561.81 84.44"/><rect class="cls-1" x="561.81" y="84.44" width="115.15" height="130.87"/><polygon class="cls-1" points="698.15 84.44 813.3 84.44 813.3 215.31 817.51 215.31 817.51 80.22 698.15 80.22 698.15 84.44"/><rect class="cls-1" x="698.15" y="84.44" width="115.15" height="130.87"/><polygon class="cls-4" points="835.89 84.44 950.57 84.44 950.57 215.31 955.25 215.31 955.25 80.22 835.89 80.22 835.89 84.44"/><rect class="cls-4" x="835.89" y="84.44" width="114.68" height="130.87"/><polygon class="cls-4" points="972.23 84.44 1086.91 84.44 1086.91 215.31 1091.59 215.31 1091.59 80.22 972.23 80.22 972.23 84.44"/><rect class="cls-4" x="972.23" y="84.44" width="114.68" height="130.87"/><polygon class="cls-1" points="1109.04 84.44 1224.18 84.44 1224.18 215.31 1228.4 215.31 1228.4 80.22 1109.04 80.22 1109.04 84.44"/><rect class="cls-1" x="1109.04" y="84.44" width="115.15" height="130.87"/><polygon class="cls-2" points="698.15 239.74 693.94 239.74 693.94 374.82 813.3 374.82 813.3 370.61 698.15 370.61 698.15 239.74"/><polygon class="cls-2" points="835.89 239.74 831.21 239.74 831.21 374.82 950.57 374.82 950.57 370.61 835.89 370.61 835.89 239.74"/><polygon class="cls-2" points="972.23 239.74 967.55 239.74 967.55 374.82 1086.91 374.82 1086.91 370.61 972.23 370.61 972.23 239.74"/><polygon class="cls-2" points="1109.04 239.74 1104.83 239.74 1104.83 374.82 1224.18 374.82 1224.18 370.61 1109.04 370.61 1109.04 239.74"/><polygon class="cls-1" points="698.15 239.74 813.3 239.74 813.3 370.61 817.51 370.61 817.51 235.52 698.15 235.52 698.15 239.74"/><rect class="cls-1" x="698.15" y="239.74" width="115.15" height="130.87"/><polygon class="cls-1" points="835.89 239.74 950.57 239.74 950.57 370.61 955.25 370.61 955.25 235.52 835.89 235.52 835.89 239.74"/><rect class="cls-1" x="835.89" y="239.74" width="114.68" height="130.87"/><polygon class="cls-1" points="972.23 239.74 1086.91 239.74 1086.91 370.61 1091.59 370.61 1091.59 235.52 972.23 235.52 972.23 239.74"/><rect class="cls-1" x="972.23" y="239.74" width="114.68" height="130.87"/><polygon class="cls-1" points="1109.04 239.74 1224.18 239.74 1224.18 370.61 1228.4 370.61 1228.4 235.52 1109.04 235.52 1109.04 239.74"/><rect class="cls-1" x="1109.04" y="239.74" width="115.15" height="130.87"/><polygon class="cls-1" points="1245.38 84.44 1360.53 84.44 1360.53 215.31 1364.74 215.31 1364.74 80.22 1245.38 80.22 1245.38 84.44"/><rect class="cls-1" x="1245.38" y="84.44" width="115.15" height="130.87"/><polygon class="cls-3" points="1497.8 215.31 1502.01 215.31 1502.01 80.22 1382.65 80.22 1382.65 84.44 1497.8 84.44 1497.8 215.31"/><rect class="cls-3" x="1382.65" y="84.44" width="115.15" height="130.87"/><polygon class="cls-5" points="1518.99 84.44 1634.14 84.44 1634.14 215.31 1638.35 215.31 1638.35 80.22 1518.99 80.22 1518.99 84.44"/><rect class="cls-5" x="1518.99" y="84.44" width="115.15" height="130.87"/><polygon class="cls-3" points="1656.26 84.44 1771.41 84.44 1771.41 215.31 1775.62 215.31 1775.62 80.22 1656.26 80.22 1656.26 84.44"/><rect class="cls-3" x="1656.26" y="84.44" width="115.15" height="130.87"/><polygon class="cls-5" points="1792.6 84.44 1907.75 84.44 1907.75 215.31 1911.96 215.31 1911.96 80.22 1792.6 80.22 1792.6 84.44"/><rect class="cls-5" x="1792.6" y="84.44" width="115.15" height="130.87"/><polygon class="cls-2" points="14.36 237.63 10.14 237.63 10.14 372.71 129.5 372.71 129.5 368.5 14.36 368.5 14.36 237.63"/><polygon class="cls-2" points="150.7 237.63 146.49 237.63 146.49 372.71 265.85 372.71 265.85 368.5 150.7 368.5 150.7 237.63"/><polygon class="cls-2" points="288.2 237.63 283.99 237.63 283.99 372.71 403.35 372.71 403.35 368.5 288.2 368.5 288.2 237.63"/><polygon class="cls-2" points="539.69 368.5 424.54 368.5 424.54 237.63 420.33 237.63 420.33 372.71 539.69 372.71 539.69 368.5"/><polygon class="cls-2" points="561.81 237.63 557.6 237.63 557.6 372.71 676.96 372.71 676.96 368.5 561.81 368.5 561.81 237.63"/><polygon class="cls-2" points="1245.38 237.63 1241.16 237.63 1241.16 372.71 1360.53 372.71 1360.53 368.5 1245.38 368.5 1245.38 237.63"/><polygon class="cls-2" points="1497.8 368.5 1382.65 368.5 1382.65 237.63 1378.44 237.63 1378.44 372.71 1497.8 372.71 1497.8 368.5"/><polygon class="cls-2" points="1518.99 237.63 1514.78 237.63 1514.78 372.71 1634.14 372.71 1634.14 368.5 1518.99 368.5 1518.99 237.63"/><polygon class="cls-2" points="1656.26 237.63 1652.05 237.63 1652.05 372.71 1771.41 372.71 1771.41 368.5 1656.26 368.5 1656.26 237.63"/><polygon class="cls-2" points="1792.6 237.63 1788.39 237.63 1788.39 372.71 1907.75 372.71 1907.75 368.5 1792.6 368.5 1792.6 237.63"/><polygon class="cls-6" points="14.36 237.63 129.5 237.63 129.5 368.5 133.72 368.5 133.72 233.42 14.36 233.42 14.36 237.63"/><rect class="cls-6" x="14.36" y="237.63" width="115.15" height="130.87"/><polygon class="cls-6" points="150.7 237.63 265.85 237.63 265.85 368.5 270.06 368.5 270.06 233.42 150.7 233.42 150.7 237.63"/><rect class="cls-6" x="150.7" y="237.63" width="115.15" height="130.87"/><polygon class="cls-6" points="288.2 237.63 403.35 237.63 403.35 368.5 407.56 368.5 407.56 233.42 288.2 233.42 288.2 237.63"/><rect class="cls-6" x="288.2" y="237.63" width="115.15" height="130.87"/><polygon class="cls-1" points="539.69 368.5 543.9 368.5 543.9 233.42 424.54 233.42 424.54 237.63 539.69 237.63 539.69 368.5"/><rect class="cls-1" x="424.54" y="237.63" width="115.15" height="130.87"/><polygon class="cls-1" points="561.81 237.63 676.96 237.63 676.96 368.5 681.17 368.5 681.17 233.42 561.81 233.42 561.81 237.63"/><rect class="cls-1" x="561.81" y="237.63" width="115.15" height="130.87"/><polygon class="cls-1" points="1245.38 237.63 1360.53 237.63 1360.53 368.5 1364.74 368.5 1364.74 233.42 1245.38 233.42 1245.38 237.63"/><rect class="cls-1" x="1245.38" y="237.63" width="115.15" height="130.87"/><polygon class="cls-3" points="1497.8 368.5 1502.01 368.5 1502.01 233.42 1382.65 233.42 1382.65 237.63 1497.8 237.63 1497.8 368.5"/><rect class="cls-3" x="1382.65" y="237.63" width="115.15" height="130.87"/><polygon class="cls-3" points="1518.99 237.63 1634.14 237.63 1634.14 368.5 1638.35 368.5 1638.35 233.42 1518.99 233.42 1518.99 237.63"/><rect class="cls-3" x="1518.99" y="237.63" width="115.15" height="130.87"/><polygon class="cls-3" points="1656.26 237.63 1771.41 237.63 1771.41 368.5 1775.62 368.5 1775.62 233.42 1656.26 233.42 1656.26 237.63"/><rect class="cls-3" x="1656.26" y="237.63" width="115.15" height="130.87"/><polygon class="cls-1" points="1792.6 237.63 1907.75 237.63 1907.75 368.5 1911.96 368.5 1911.96 233.42 1792.6 233.42 1792.6 237.63"/><rect class="cls-1" x="1792.6" y="237.63" width="115.15" height="130.87"/><polygon class="cls-2" points="14.36 711.5 10.14 711.5 10.14 846.58 129.5 846.58 129.5 842.37 14.36 842.37 14.36 711.5"/><polygon class="cls-2" points="150.7 711.5 146.49 711.5 146.49 846.58 265.85 846.58 265.85 842.37 150.7 842.37 150.7 711.5"/><polygon class="cls-2" points="288.2 711.5 283.99 711.5 283.99 846.58 403.35 846.58 403.35 842.37 288.2 842.37 288.2 711.5"/><polygon class="cls-2" points="1518.99 711.5 1514.78 711.5 1514.78 846.58 1634.14 846.58 1634.14 842.37 1518.99 842.37 1518.99 711.5"/><polygon class="cls-2" points="1656.26 711.5 1652.05 711.5 1652.05 846.58 1771.41 846.58 1771.41 842.37 1656.26 842.37 1656.26 711.5"/><polygon class="cls-2" points="1792.6 711.5 1788.39 711.5 1788.39 846.58 1907.75 846.58 1907.75 842.37 1792.6 842.37 1792.6 711.5"/><polygon class="cls-1" points="14.36 711.5 129.5 711.5 129.5 842.37 133.72 842.37 133.72 707.29 14.36 707.29 14.36 711.5"/><rect class="cls-1" x="14.36" y="711.5" width="115.15" height="130.87"/><polygon class="cls-1" points="150.7 711.5 265.85 711.5 265.85 842.37 270.06 842.37 270.06 707.29 150.7 707.29 150.7 711.5"/><rect class="cls-1" x="150.7" y="711.5" width="115.15" height="130.87"/><polygon class="cls-1" points="288.2 711.5 403.35 711.5 403.35 842.37 407.56 842.37 407.56 707.29 288.2 707.29 288.2 711.5"/><rect class="cls-1" x="288.2" y="711.5" width="115.15" height="130.87"/><polygon class="cls-2" points="427 711.5 422.79 711.5 422.79 846.58 542.14 846.58 542.14 842.37 427 842.37 427 711.5"/><polygon class="cls-1" points="427 711.5 542.14 711.5 542.14 842.37 546.36 842.37 546.36 707.29 427 707.29 427 711.5"/><rect class="cls-1" x="427" y="711.5" width="115.15" height="130.87"/><polygon class="cls-2" points="1389.03 711.5 1384.82 711.5 1384.82 846.58 1504.18 846.58 1504.18 842.37 1389.03 842.37 1389.03 711.5"/><polygon class="cls-1" points="1389.03 711.5 1504.18 711.5 1504.18 842.37 1508.39 842.37 1508.39 707.29 1389.03 707.29 1389.03 711.5"/><rect class="cls-1" x="1389.03" y="711.5" width="115.15" height="130.87"/><polygon class="cls-7" points="1518.99 711.5 1634.14 711.5 1634.14 842.37 1638.35 842.37 1638.35 707.29 1518.99 707.29 1518.99 711.5"/><rect class="cls-7" x="1518.99" y="711.5" width="115.15" height="130.87"/><polygon class="cls-7" points="1656.26 711.5 1771.41 711.5 1771.41 842.37 1775.62 842.37 1775.62 707.29 1656.26 707.29 1656.26 711.5"/><rect class="cls-7" x="1656.26" y="711.5" width="115.15" height="130.87"/><polygon class="cls-4" points="1792.6 711.5 1907.75 711.5 1907.75 842.37 1911.96 842.37 1911.96 707.29 1792.6 707.29 1792.6 711.5"/><rect class="cls-4" x="1792.6" y="711.5" width="115.15" height="130.87"/><polygon class="cls-2" points="14.36 864.69 10.14 864.69 10.14 999.77 129.5 999.77 129.5 995.56 14.36 995.56 14.36 864.69"/><polygon class="cls-2" points="150.7 864.69 146.49 864.69 146.49 999.77 265.85 999.77 265.85 995.56 150.7 995.56 150.7 864.69"/><polygon class="cls-2" points="288.2 864.69 283.99 864.69 283.99 999.77 403.35 999.77 403.35 995.56 288.2 995.56 288.2 864.69"/><polygon class="cls-2" points="424.54 864.69 420.33 864.69 420.33 999.77 539.69 999.77 539.69 995.56 424.54 995.56 424.54 864.69"/><polygon class="cls-2" points="561.81 864.69 557.6 864.69 557.6 999.77 676.96 999.77 676.96 995.56 561.81 995.56 561.81 864.69"/><polygon class="cls-2" points="698.15 864.69 693.94 864.69 693.94 999.77 813.3 999.77 813.3 995.56 698.15 995.56 698.15 864.69"/><polygon class="cls-2" points="835.43 864.69 831.21 864.69 831.21 999.77 950.57 999.77 950.57 995.56 835.43 995.56 835.43 864.69"/><polygon class="cls-2" points="971.77 864.69 967.55 864.69 967.55 999.77 1086.91 999.77 1086.91 995.56 971.77 995.56 971.77 864.69"/><polygon class="cls-2" points="1109.04 864.69 1104.83 864.69 1104.83 999.77 1224.18 999.77 1224.18 995.56 1109.04 995.56 1109.04 864.69"/><polygon class="cls-2" points="1245.38 864.69 1241.16 864.69 1241.16 999.77 1360.53 999.77 1360.53 995.56 1245.38 995.56 1245.38 864.69"/><polygon class="cls-2" points="1382.65 864.69 1378.44 864.69 1378.44 999.77 1497.8 999.77 1497.8 995.56 1382.65 995.56 1382.65 864.69"/><polygon class="cls-2" points="1518.99 864.69 1514.78 864.69 1514.78 999.77 1634.14 999.77 1634.14 995.56 1518.99 995.56 1518.99 864.69"/><polygon class="cls-2" points="1656.26 864.69 1652.05 864.69 1652.05 999.77 1771.41 999.77 1771.41 995.56 1656.26 995.56 1656.26 864.69"/><polygon class="cls-2" points="1792.6 864.69 1788.39 864.69 1788.39 999.77 1907.75 999.77 1907.75 995.56 1792.6 995.56 1792.6 864.69"/><polygon class="cls-4" points="14.36 864.69 129.5 864.69 129.5 995.56 133.72 995.56 133.72 860.48 14.36 860.48 14.36 864.69"/><rect class="cls-4" x="14.36" y="864.69" width="115.15" height="130.87"/><polygon class="cls-4" points="150.7 864.69 265.85 864.69 265.85 995.56 270.06 995.56 270.06 860.48 150.7 860.48 150.7 864.69"/><rect class="cls-4" x="150.7" y="864.69" width="115.15" height="130.87"/><polygon class="cls-4" points="288.2 864.69 403.35 864.69 403.35 995.56 407.56 995.56 407.56 860.48 288.2 860.48 288.2 864.69"/><rect class="cls-4" x="288.2" y="864.69" width="115.15" height="130.87"/><polygon class="cls-4" points="424.54 864.69 539.69 864.69 539.69 995.56 543.9 995.56 543.9 860.48 424.54 860.48 424.54 864.69"/><rect class="cls-4" x="424.54" y="864.69" width="115.15" height="130.87"/><polygon class="cls-7" points="561.81 864.69 676.96 864.69 676.96 995.56 681.17 995.56 681.17 860.48 561.81 860.48 561.81 864.69"/><rect class="cls-7" x="561.81" y="864.69" width="115.15" height="130.87"/><polygon class="cls-7" points="698.15 864.69 813.3 864.69 813.3 995.56 817.51 995.56 817.51 860.48 698.15 860.48 698.15 864.69"/><rect class="cls-7" x="698.15" y="864.69" width="115.15" height="130.87"/><polygon class="cls-1" points="835.43 864.69 950.57 864.69 950.57 995.56 954.78 995.56 954.78 860.48 835.43 860.48 835.43 864.69"/><rect class="cls-1" x="835.43" y="864.69" width="115.15" height="130.87"/><polygon class="cls-1" points="971.77 864.69 1086.91 864.69 1086.91 995.56 1091.13 995.56 1091.13 860.48 971.77 860.48 971.77 864.69"/><rect class="cls-1" x="971.77" y="864.69" width="115.15" height="130.87"/><polygon class="cls-6" points="1109.04 864.69 1224.18 864.69 1224.18 995.56 1228.4 995.56 1228.4 860.48 1109.04 860.48 1109.04 864.69"/><rect class="cls-6" x="1109.04" y="864.69" width="115.15" height="130.87"/><polygon class="cls-6" points="1245.38 864.69 1360.53 864.69 1360.53 995.56 1364.74 995.56 1364.74 860.48 1245.38 860.48 1245.38 864.69"/><rect class="cls-6" x="1245.38" y="864.69" width="115.15" height="130.87"/><polygon class="cls-1" points="1382.65 864.69 1497.8 864.69 1497.8 995.56 1502.01 995.56 1502.01 860.48 1382.65 860.48 1382.65 864.69"/><rect class="cls-1" x="1382.65" y="864.69" width="115.15" height="130.87"/><polygon class="cls-1" points="1518.99 864.69 1634.14 864.69 1634.14 995.56 1638.35 995.56 1638.35 860.48 1518.99 860.48 1518.99 864.69"/><rect class="cls-1" x="1518.99" y="864.69" width="115.15" height="130.87"/><polygon class="cls-7" points="1656.26 864.69 1771.41 864.69 1771.41 995.56 1775.62 995.56 1775.62 860.48 1656.26 860.48 1656.26 864.69"/><rect class="cls-7" x="1656.26" y="864.69" width="115.15" height="130.87"/><polygon class="cls-4" points="1792.6 864.69 1907.75 864.69 1907.75 995.56 1911.96 995.56 1911.96 860.48 1792.6 860.48 1792.6 864.69"/><rect class="cls-4" x="1792.6" y="864.69" width="115.15" height="130.87"/><rect class="cls-2" x="10.15" y="1017.88" width="4.21" height="62.12"/><rect class="cls-2" x="146.49" y="1017.88" width="4.21" height="62.12"/><rect class="cls-2" x="283.99" y="1017.88" width="4.21" height="62.12"/><rect class="cls-2" x="420.33" y="1017.88" width="4.21" height="62.12"/><rect class="cls-2" x="557.6" y="1017.88" width="4.21" height="62.12"/><rect class="cls-2" x="693.94" y="1017.88" width="4.21" height="62.12"/><rect class="cls-2" x="831.21" y="1017.88" width="4.21" height="62.12"/><rect class="cls-2" x="967.55" y="1017.88" width="4.21" height="62.12"/><rect class="cls-2" x="1104.82" y="1017.88" width="4.21" height="62.12"/><rect class="cls-2" x="1241.17" y="1017.88" width="4.21" height="62.12"/><rect class="cls-2" x="1378.44" y="1017.88" width="4.21" height="62.12"/><rect class="cls-2" x="1514.78" y="1017.88" width="4.21" height="62.12"/><rect class="cls-2" x="1652.05" y="1017.88" width="4.21" height="62.12"/><rect class="cls-2" x="1788.39" y="1017.88" width="4.21" height="62.12"/><polygon class="cls-1" points="14.36 1013.67 14.36 1017.88 129.5 1017.88 129.5 1080 133.72 1080 133.72 1013.67 14.36 1013.67"/><rect class="cls-1" x="14.36" y="1017.88" width="115.15" height="62.12"/><polygon class="cls-1" points="150.7 1013.67 150.7 1017.88 265.85 1017.88 265.85 1080 270.06 1080 270.06 1013.67 150.7 1013.67"/><rect class="cls-1" x="150.7" y="1017.88" width="115.15" height="62.12"/><polygon class="cls-1" points="288.2 1013.67 288.2 1017.88 403.35 1017.88 403.35 1080 407.56 1080 407.56 1013.67 288.2 1013.67"/><rect class="cls-1" x="288.2" y="1017.88" width="115.15" height="62.12"/><polygon class="cls-7" points="424.54 1013.67 424.54 1017.88 539.69 1017.88 539.69 1080 543.9 1080 543.9 1013.67 424.54 1013.67"/><rect class="cls-7" x="424.54" y="1017.88" width="115.15" height="62.12"/><polygon class="cls-7" points="561.81 1013.67 561.81 1017.88 676.96 1017.88 676.96 1080 681.17 1080 681.17 1013.67 561.81 1013.67"/><rect class="cls-7" x="561.81" y="1017.88" width="115.15" height="62.12"/><polygon class="cls-1" points="698.15 1013.67 698.15 1017.88 813.3 1017.88 813.3 1080 817.51 1080 817.51 1013.67 698.15 1013.67"/><rect class="cls-1" x="698.15" y="1017.88" width="115.15" height="62.12"/><polygon class="cls-1" points="835.43 1013.67 835.43 1017.88 950.57 1017.88 950.57 1080 954.78 1080 954.78 1013.67 835.43 1013.67"/><rect class="cls-1" x="835.43" y="1017.88" width="115.15" height="62.12"/><polygon class="cls-1" points="971.77 1013.67 971.77 1017.88 1086.91 1017.88 1086.91 1080 1091.13 1080 1091.13 1013.67 971.77 1013.67"/><rect class="cls-1" x="971.77" y="1017.88" width="115.15" height="62.12"/><polygon class="cls-6" points="1109.04 1013.67 1109.04 1017.88 1224.18 1017.88 1224.18 1080 1228.4 1080 1228.4 1013.67 1109.04 1013.67"/><rect class="cls-6" x="1109.04" y="1017.88" width="115.15" height="62.12"/><polygon class="cls-6" points="1245.38 1013.67 1245.38 1017.88 1360.53 1017.88 1360.53 1080 1364.74 1080 1364.74 1013.67 1245.38 1013.67"/><rect class="cls-6" x="1245.38" y="1017.88" width="115.15" height="62.12"/><polygon class="cls-1" points="1382.65 1013.67 1382.65 1017.88 1497.8 1017.88 1497.8 1080 1502.01 1080 1502.01 1013.67 1382.65 1013.67"/><rect class="cls-1" x="1382.65" y="1017.88" width="115.15" height="62.12"/><polygon class="cls-1" points="1518.99 1013.67 1518.99 1017.88 1634.14 1017.88 1634.14 1080 1638.35 1080 1638.35 1013.67 1518.99 1013.67"/><rect class="cls-1" x="1518.99" y="1017.88" width="115.15" height="62.12"/><polygon class="cls-7" points="1656.26 1013.67 1656.26 1017.88 1771.41 1017.88 1771.41 1080 1775.62 1080 1775.62 1013.67 1656.26 1013.67"/><rect class="cls-7" x="1656.26" y="1017.88" width="115.15" height="62.12"/><polygon class="cls-4" points="1792.6 1013.67 1792.6 1017.88 1907.75 1017.88 1907.75 1080 1911.96 1080 1911.96 1013.67 1792.6 1013.67"/><rect class="cls-4" x="1792.6" y="1017.88" width="115.15" height="62.12"/><polygon class="cls-4" points="1907.64 689.18 1792.49 689.18 1792.49 558.31 1788.28 558.31 1788.28 693.39 1907.64 693.39 1907.64 689.18"/><polygon class="cls-4" points="1907.64 689.18 1911.85 689.18 1911.85 554.1 1792.49 554.1 1792.49 558.31 1907.64 558.31 1907.64 689.18"/><rect class="cls-4" x="1792.5" y="558.31" width="115.15" height="130.87"/><polygon class="cls-2" points="1907.64 529.8 1792.49 529.8 1792.49 398.93 1788.28 398.93 1788.28 534.01 1907.64 534.01 1907.64 529.8"/><polygon class="cls-1" points="1907.64 529.8 1911.85 529.8 1911.85 394.71 1792.49 394.71 1792.49 398.93 1907.64 398.93 1907.64 529.8"/><rect class="cls-1" x="1792.5" y="398.93" width="115.15" height="130.87"/><polygon class="cls-2" points="127.4 689.18 12.25 689.18 12.25 558.31 8.04 558.31 8.04 693.39 127.4 693.39 127.4 689.18"/><polygon class="cls-1" points="127.4 689.18 131.61 689.18 131.61 554.1 12.25 554.1 12.25 558.31 127.4 558.31 127.4 689.18"/><rect class="cls-1" x="12.25" y="558.31" width="115.15" height="130.87"/><polygon class="cls-2" points="127.4 529.8 12.25 529.8 12.25 398.93 8.04 398.93 8.04 534.01 127.4 534.01 127.4 529.8"/><polygon class="cls-1" points="127.4 529.8 131.61 529.8 131.61 394.71 12.25 394.71 12.25 398.93 127.4 398.93 127.4 529.8"/><rect class="cls-1" x="12.25" y="398.93" width="115.15" height="130.87"/></g></g></svg>