<svg xmlns="http://www.w3.org/2000/svg" viewBox="0 0 431 425.14"><defs><style>.cls-1{fill:#959e38;}.cls-2{fill:#d3dd26;}.cls-3{fill:#fffced;}</style></defs><g id="Layer_2" data-name="Layer 2"><g id="CTA_Elements" data-name="CTA Elements"><rect class="cls-1" x="5.23" y="4.9" width="313.88" height="313.88" transform="translate(0.33 324.02) rotate(-90)"/><path class="cls-1" d="M349,125.32l-5.08,20.54,5.29,16-5.29,16L349,198.37c0,3.46-2.56,5.92-5.08,4.95l-1-.37c7.7,29.5,23.42,49.71,41.56,49.71,25.73,0,46.59-40.66,46.59-90.81S410.14,71,384.41,71c-18.14,0-33.86,20.21-41.56,49.71l1-.37C346.41,119.4,348.94,121.87,349,125.32Z"/><path class="cls-1" d="M316.91,161.85v54.39C329.5,207,350.78,198.52,385,203c-8.45-12.34-13.22-26.31-13.22-41.1Z"/><path class="cls-1" d="M316.91,107.46v54.39h54.88c0-14.8,4.77-28.77,13.22-41.11C350.78,125.18,329.5,116.71,316.91,107.46Z"/><path class="cls-1" d="M135.66,343.11,115.13,338l-16,5.28-16-5.28-20.54,5.08c-3.45,0-5.92-2.56-5-5.08.13-.35.26-.7.37-1-29.5,7.7-49.71,23.41-49.71,41.56,0,25.73,40.66,46.59,90.82,46.59S190,404.28,190,378.55c0-18.15-20.22-33.86-49.72-41.56.12.34.24.69.38,1C141.59,340.55,139.12,343.07,135.66,343.11Z"/><path class="cls-1" d="M99.14,311.05H44.75C54,323.64,62.47,344.92,58,379.15c12.34-8.45,26.31-13.22,41.11-13.22Z"/><path class="cls-1" d="M153.53,311.05H99.14v54.88c14.79,0,28.76,4.77,41.1,13.22C135.81,344.92,144.27,323.64,153.53,311.05Z"/><rect class="cls-2" width="313.88" height="313.88" transform="translate(0 313.88) rotate(-90)"/><path class="cls-2" d="M343.74,120.42,338.66,141l5.29,16-5.29,16,5.08,20.54c0,3.45-2.56,5.92-5.08,4.95-.35-.13-.69-.26-1-.37,7.7,29.5,23.42,49.71,41.56,49.71,25.73,0,46.59-40.66,46.59-90.82s-20.86-90.82-46.59-90.82c-18.14,0-33.86,20.22-41.56,49.71.35-.11.69-.23,1-.37C341.18,114.49,343.71,117,343.74,120.42Z"/><path class="cls-2" d="M311.68,156.94v54.39c12.59-9.26,33.87-17.72,68.1-13.28-8.45-12.34-13.22-26.31-13.22-41.11Z"/><path class="cls-2" d="M311.68,102.55v54.39h54.88c0-14.79,4.77-28.76,13.22-41.11C345.55,120.27,324.27,111.81,311.68,102.55Z"/><path class="cls-2" d="M130.43,338.2l-20.53-5.08-16,5.29-16-5.29L57.38,338.2c-3.45,0-5.92-2.56-5-5.08.13-.35.25-.69.37-1C23.3,339.78,3.09,355.5,3.09,373.64c0,25.73,40.66,46.59,90.82,46.59s90.81-20.86,90.81-46.59c0-18.14-20.21-33.86-49.71-41.55.12.34.24.68.38,1C136.36,335.64,133.89,338.17,130.43,338.2Z"/><path class="cls-2" d="M93.91,306.14H39.52c9.26,12.6,17.72,33.88,13.28,68.11C65.14,365.79,79.11,361,93.91,361Z"/><path class="cls-2" d="M148.3,306.14H93.91V361c14.79,0,28.76,4.77,41.1,13.23C130.58,340,139,318.74,148.3,306.14Z"/><rect class="cls-3" x="16.62" y="16.62" width="280.64" height="280.64" transform="translate(0 313.88) rotate(-90)"/></g></g></svg>