<svg xmlns="http://www.w3.org/2000/svg" viewBox="0 0 532.78 328.44"><defs><style>.cls-1{fill:#959e38;}.cls-2{fill:#d3dd26;}.cls-3{fill:#fffced;}</style></defs><g id="Layer_2" data-name="Layer 2"><g id="CTA_Elements" data-name="CTA Elements"><path class="cls-1" d="M99.9,5.23v186a78.67,78.67,0,0,1-12.14,3.92c-7.82-28.72-23.32-48.29-41.17-48.29C20.86,146.81,0,187.47,0,237.62s20.86,90.82,46.59,90.82c17.85,0,33.35-19.57,41.17-48.29a79.79,79.79,0,0,1,12.14,3.91v35.05H413.79V5.23Z"/><path class="cls-1" d="M481.28,71.36c-17.84,0-33.34,19.57-41.16,48.29a72.09,72.09,0,0,1-26.33-11.87V216.56a72.26,72.26,0,0,1,26.33-11.86c7.82,28.72,23.32,48.29,41.16,48.29,25.74,0,46.6-40.66,46.6-90.82S507,71.36,481.28,71.36Z"/><path class="cls-2" d="M486.19,66.12c-17.85,0-33.35,19.57-41.17,48.3a72.34,72.34,0,0,1-26.33-11.87V0H104.81V186a79.54,79.54,0,0,1-12.15,3.92c-7.82-28.73-23.32-48.3-41.16-48.3-25.74,0-46.6,40.67-46.6,90.82s20.86,90.82,46.6,90.82c17.84,0,33.34-19.57,41.16-48.3a80.66,80.66,0,0,1,12.15,3.92v35.05H418.69V211.33A72.34,72.34,0,0,1,445,199.46c7.82,28.73,23.32,48.3,41.17,48.3,25.73,0,46.59-40.66,46.59-90.82S511.92,66.12,486.19,66.12ZM402.07,295.63H121.43V15H402.07Z"/><rect class="cls-3" x="121.43" y="14.99" width="280.64" height="280.64"/></g></g></svg>