<svg xmlns="http://www.w3.org/2000/svg" viewBox="0 0 425.14 439.38"><defs><style>.cls-1{fill:#b46a3d;}.cls-2{fill:#f47920;}.cls-3{fill:#fffced;}</style></defs><g id="Layer_2" data-name="Layer 2"><g id="CTA_Elements" data-name="CTA Elements"><path class="cls-1" d="M221.33,109.44A77.25,77.25,0,0,1,215.46,93c28.72-7.82,48.29-23.32,48.29-41.17,0-25.73-40.66-46.59-90.82-46.59S82.12,26.09,82.12,51.82c0,17.85,19.57,33.35,48.29,41.17a77.25,77.25,0,0,1-5.87,16.45H106.35V299.05a76.18,76.18,0,0,1-18.59,7c-7.82-28.73-23.32-48.3-41.17-48.3C20.86,257.74,0,298.4,0,348.56s20.86,90.82,46.59,90.82c17.85,0,33.35-19.57,41.17-48.3a76.19,76.19,0,0,1,18.59,7v25.27H420.23V109.44Z"/><path class="cls-2" d="M226.24,104.21a77.24,77.24,0,0,1-5.88-16.45c28.73-7.82,48.3-23.32,48.3-41.17C268.66,20.86,228,0,177.84,0S87,20.86,87,46.59c0,17.85,19.57,33.35,48.3,41.17a77.79,77.79,0,0,1-5.88,16.45H111.25V293.82a75.86,75.86,0,0,1-18.58,7c-7.83-28.72-23.33-48.29-41.17-48.29-25.74,0-46.6,40.66-46.6,90.82s20.86,90.81,46.6,90.81c17.84,0,33.34-19.57,41.17-48.29a76.26,76.26,0,0,1,18.58,7V418.1H425.14V104.21Z"/><rect class="cls-3" x="127.87" y="120.83" width="280.64" height="280.64"/></g></g></svg>