<svg xmlns="http://www.w3.org/2000/svg" viewBox="0 0 425.14 431"><defs><style>.cls-1{fill:#b46a3d;}.cls-2{fill:#f47920;}.cls-3{fill:#fffced;}</style></defs><g id="Layer_2" data-name="Layer 2"><g id="CTA_Elements" data-name="CTA Elements"><path class="cls-1" d="M420.23,319.11V5.23H106.35v44.4a76.18,76.18,0,0,1-18.59,7C79.94,27.89,64.44,8.32,46.59,8.32,20.86,8.32,0,49,0,99.14S20.86,190,46.59,190c17.85,0,33.35-19.57,41.17-48.3a76.19,76.19,0,0,1,18.59,7V319.11h104.1a73.48,73.48,0,0,1,10.32,24.13c-28.73,7.82-48.3,23.32-48.3,41.17,0,25.73,40.66,46.59,90.82,46.59s90.82-20.86,90.82-46.59c0-17.85-19.57-33.35-48.3-41.17a73.48,73.48,0,0,1,10.32-24.13Z"/><path class="cls-2" d="M425.14,313.88V0H111.25V44.4a75.79,75.79,0,0,1-18.59,7C84.84,22.66,69.34,3.09,51.5,3.09,25.76,3.09,4.9,43.75,4.9,93.91s20.86,90.81,46.6,90.81c17.84,0,33.34-19.57,41.16-48.29a76.19,76.19,0,0,1,18.59,7V313.88h104.1A73.27,73.27,0,0,1,225.67,338c-28.72,7.82-48.29,23.32-48.29,41.17,0,25.73,40.66,46.59,90.82,46.59S359,404.91,359,379.18c0-17.85-19.57-33.35-48.29-41.17A73.27,73.27,0,0,1,321,313.88ZM127.87,16.62H408.52V297.26H127.87Z"/><rect class="cls-3" x="127.87" y="16.62" width="280.64" height="280.64"/></g></g></svg>