<svg xmlns="http://www.w3.org/2000/svg" viewBox="0 0 1580.05 320.37"><defs><style>.cls-1{fill:#26808a;}.cls-2{fill:#36bbca;}</style></defs><g id="Layer_2" data-name="Layer 2"><g id="Text"><path class="cls-1" d="M290.6,184.34,313.27,25.65h111.3L362.74,314.19H243.2L212.28,167.86,181.37,314.19H61.83L0,25.65H111.29L134,184.34,164.88,25.65h94.81Z"/><path class="cls-2" d="M302.26,168.82,324.93,10.13h111.3L374.4,298.67H254.86L223.94,152.34,193,298.67H73.49L11.66,10.13H123l22.67,158.69L176.54,10.13h94.81Z"/><polygon class="cls-1" points="0 25.64 11.66 10.13 14.98 25.64 0 25.64"/><polygon class="cls-1" points="193.03 298.67 181.37 314.19 184.65 298.67 193.03 298.67"/><polygon class="cls-1" points="374.4 298.67 362.74 314.19 366.06 298.67 374.4 298.67"/><polygon class="cls-1" points="164.88 25.64 176.54 10.13 173.52 25.64 164.88 25.64"/><polyline class="cls-1" points="313.27 25.64 324.93 10.13 322.71 25.64"/><path class="cls-1" d="M638.92,320.37c-94.81,0-160.76-66-160.76-150.45S544.11,19.46,638.92,19.46,799.67,85.41,799.67,169.92,733.72,320.37,638.92,320.37Zm0-199.92c-24.74,0-45.35,20.61-45.35,49.47s20.61,49.46,45.35,49.46,45.34-20.61,45.34-49.46S663.65,120.45,638.92,120.45Z"/><path class="cls-2" d="M650.58,304.85c-94.81,0-160.76-66-160.76-150.45S555.77,3.94,650.58,3.94s160.75,66,160.75,150.46S745.38,304.85,650.58,304.85Zm0-199.92c-24.74,0-45.35,20.61-45.35,49.47s20.61,49.46,45.35,49.46,45.34-20.61,45.34-49.46S675.31,104.93,650.58,104.93Z"/><path class="cls-1" d="M1042.87,314.19l-49.46-94.81h-4.12v94.81H882.11V25.65s57.71-4.13,119.54-4.13c90.69,0,131.91,41.22,131.91,101s-37.1,80.38-37.1,80.38l70.07,111.3Zm-41.22-169c14.43,0,24.73-10.3,24.73-22.67s-10.3-22.67-24.73-22.67H989.29v45.34Z"/><path class="cls-2" d="M1054.53,298.67l-49.46-94.81H1001v94.81H893.77V10.13S951.48,6,1013.31,6c90.69,0,131.9,41.22,131.9,101s-37.09,80.38-37.09,80.38l70.07,111.3Zm-41.22-169c14.43,0,24.73-10.3,24.73-22.67s-10.3-22.67-24.73-22.67H1001v45.34Z"/><polygon class="cls-1" points="893.77 10.13 882.11 25.64 893.77 24.9 893.77 10.13"/><polygon class="cls-1" points="1000.95 298.67 989.29 314.19 989.29 298.67 1000.95 298.67"/><polygon class="cls-1" points="1178.19 298.67 1166.53 314.19 1156.76 298.67 1178.19 298.67"/><path class="cls-1" d="M1568.39,163.92c0,61.44-26.55,109-79.38,132.41l-59.41-80.7c15-8.3,23.37-25.32,23.37-51.71,0-39.16-18.54-57.71-49.46-57.71H1387V15.6q8.13-.07,16.49-.08C1513.16,15.52,1568.39,75.29,1568.39,163.92Z"/><path class="cls-2" d="M1580.05,148.4c0,61.44-26.55,109-79.38,132.41l-59.41-80.7c15-8.3,23.37-25.32,23.37-51.71,0-39.16-18.54-57.71-49.46-57.71h-16.49V.08q8.13-.08,16.49-.08C1524.82,0,1580.05,59.77,1580.05,148.4Z"/><polygon class="cls-1" points="1387.02 15.6 1398.68 0.08 1398.68 16.82 1387.02 17.05 1387.02 15.6"/><polygon class="cls-1" points="1429.6 215.63 1441.26 200.11 1450.86 213.15 1435.59 223.76 1429.6 215.63"/><path class="cls-1" d="M1454,302.33c-23.36,10.36-51.87,16-85.5,16-66,0-123.66-4.12-123.66-4.12V25.65s48.38-3.46,107.17-4v206h16.49c10.09,0,18.85-2,26.09-6Z"/><path class="cls-2" d="M1465.67,286.81c-23.36,10.36-51.87,16-85.5,16-66,0-123.66-4.12-123.66-4.12V10.13s48.38-3.46,107.17-4.05v206h16.49c10.09,0,18.85-2,26.09-6Z"/><polygon class="cls-1" points="1244.85 25.65 1256.51 10.13 1256.51 26.48 1246.93 29.8 1244.85 25.65"/><path class="cls-1" d="M1465.67,286.81,1454,302.33l-6.45-8.77A149.48,149.48,0,0,0,1465.67,286.81Z"/></g></g></svg>